# MagicaVoxel @ Ephtracy

# group
o 

# material
mtllib road_center.mtl
usemtl palette

# normals
vn -1 0 0
vn 1 0 0
vn 0 0 1
vn 0 0 -1
vn 0 -1 0
vn 0 1 0

# texcoords
vt 0.00585938 0.5
vt 0.0136719 0.5
vt 0.876953 0.5

# verts
v -0.9 0 0.9
v -0.9 0 0.7
v -0.9 0 0.1
v -0.9 0 -0.1
v -0.9 0 -0.7
v -0.9 0 -0.9
v -0.9 0.1 0.9
v -0.9 0.1 0.7
v -0.9 0.1 0.1
v -0.9 0.1 -0.1
v -0.9 0.1 -0.7
v -0.9 0.1 -0.9
v 0.9 0 0.9
v 0.9 0 0.7
v 0.9 0 0.1
v 0.9 0 -0.1
v 0.9 0 -0.7
v 0.9 0 -0.9
v 0.9 0.1 0.9
v 0.9 0.1 0.7
v 0.9 0.1 0.1
v 0.9 0.1 -0.1
v 0.9 0.1 -0.7
v 0.9 0.1 -0.9
v -0.9 0 0.9
v -0.9 0.1 0.9
v -0.7 0 0.9
v -0.7 0.1 0.9
v -0.1 0 0.9
v -0.1 0.1 0.9
v 0.1 0 0.9
v 0.1 0.1 0.9
v 0.7 0 0.9
v 0.7 0.1 0.9
v 0.9 0 0.9
v 0.9 0.1 0.9
v -0.9 0 -0.9
v -0.9 0.1 -0.9
v -0.7 0 -0.9
v -0.7 0.1 -0.9
v -0.1 0 -0.9
v -0.1 0.1 -0.9
v 0.1 0 -0.9
v 0.1 0.1 -0.9
v 0.7 0 -0.9
v 0.7 0.1 -0.9
v 0.9 0 -0.9
v 0.9 0.1 -0.9
v -0.9 0 0.9
v -0.7 0 0.9
v -0.1 0 0.9
v 0.1 0 0.9
v 0.7 0 0.9
v 0.9 0 0.9
v -0.9 0 0.7
v -0.7 0 0.7
v -0.1 0 0.7
v 0.1 0 0.7
v 0.7 0 0.7
v 0.9 0 0.7
v -0.9 0 0.1
v -0.7 0 0.1
v -0.1 0 0.1
v 0.1 0 0.1
v 0.7 0 0.1
v 0.9 0 0.1
v -0.9 0 -0.1
v -0.7 0 -0.1
v -0.1 0 -0.1
v 0.1 0 -0.1
v 0.7 0 -0.1
v 0.9 0 -0.1
v -0.9 0 -0.7
v -0.7 0 -0.7
v -0.1 0 -0.7
v 0.1 0 -0.7
v 0.7 0 -0.7
v 0.9 0 -0.7
v -0.9 0 -0.9
v -0.7 0 -0.9
v -0.1 0 -0.9
v 0.1 0 -0.9
v 0.7 0 -0.9
v 0.9 0 -0.9
v -0.9 0.1 0.9
v -0.7 0.1 0.9
v -0.1 0.1 0.9
v 0.1 0.1 0.9
v 0.7 0.1 0.9
v 0.9 0.1 0.9
v -0.9 0.1 0.7
v -0.7 0.1 0.7
v -0.1 0.1 0.7
v 0.1 0.1 0.7
v 0.7 0.1 0.7
v 0.9 0.1 0.7
v -0.9 0.1 0.1
v -0.7 0.1 0.1
v -0.1 0.1 0.1
v 0.1 0.1 0.1
v 0.7 0.1 0.1
v 0.9 0.1 0.1
v -0.9 0.1 -0.1
v -0.7 0.1 -0.1
v -0.1 0.1 -0.1
v 0.1 0.1 -0.1
v 0.7 0.1 -0.1
v 0.9 0.1 -0.1
v -0.9 0.1 -0.7
v -0.7 0.1 -0.7
v -0.1 0.1 -0.7
v 0.1 0.1 -0.7
v 0.7 0.1 -0.7
v 0.9 0.1 -0.7
v -0.9 0.1 -0.9
v -0.7 0.1 -0.9
v -0.1 0.1 -0.9
v 0.1 0.1 -0.9
v 0.7 0.1 -0.9
v 0.9 0.1 -0.9

# faces
f 7/2/1 2/2/1 1/2/1
f 8/3/1 3/3/1 2/3/1
f 8/2/1 2/2/1 7/2/1
f 9/1/1 4/1/1 3/1/1
f 9/3/1 3/3/1 8/3/1
f 10/3/1 5/3/1 4/3/1
f 10/1/1 4/1/1 9/1/1
f 11/2/1 6/2/1 5/2/1
f 11/3/1 5/3/1 10/3/1
f 12/2/1 6/2/1 11/2/1
f 13/2/2 14/2/2 19/2/2
f 14/3/2 15/3/2 20/3/2
f 19/2/2 14/2/2 20/2/2
f 15/1/2 16/1/2 21/1/2
f 20/3/2 15/3/2 21/3/2
f 16/3/2 17/3/2 22/3/2
f 21/1/2 16/1/2 22/1/2
f 17/2/2 18/2/2 23/2/2
f 22/3/2 17/3/2 23/3/2
f 23/2/2 18/2/2 24/2/2
f 27/2/3 26/2/3 25/2/3
f 28/2/3 26/2/3 27/2/3
f 29/3/3 28/3/3 27/3/3
f 30/3/3 28/3/3 29/3/3
f 31/1/3 30/1/3 29/1/3
f 32/1/3 30/1/3 31/1/3
f 33/3/3 32/3/3 31/3/3
f 34/3/3 32/3/3 33/3/3
f 35/2/3 34/2/3 33/2/3
f 36/2/3 34/2/3 35/2/3
f 37/2/4 38/2/4 39/2/4
f 39/2/4 38/2/4 40/2/4
f 39/3/4 40/3/4 41/3/4
f 41/3/4 40/3/4 42/3/4
f 41/1/4 42/1/4 43/1/4
f 43/1/4 42/1/4 44/1/4
f 43/3/4 44/3/4 45/3/4
f 45/3/4 44/3/4 46/3/4
f 45/2/4 46/2/4 47/2/4
f 47/2/4 46/2/4 48/2/4
f 55/2/5 50/2/5 49/2/5
f 56/3/5 51/3/5 50/3/5
f 56/2/5 50/2/5 55/2/5
f 57/1/5 52/1/5 51/1/5
f 57/3/5 51/3/5 56/3/5
f 58/3/5 53/3/5 52/3/5
f 58/1/5 52/1/5 57/1/5
f 59/2/5 54/2/5 53/2/5
f 59/3/5 53/3/5 58/3/5
f 60/2/5 54/2/5 59/2/5
f 61/3/5 58/3/5 57/3/5
f 61/3/5 56/3/5 55/3/5
f 61/3/5 60/3/5 59/3/5
f 61/3/5 59/3/5 58/3/5
f 61/3/5 57/3/5 56/3/5
f 62/3/5 60/3/5 61/3/5
f 63/3/5 60/3/5 62/3/5
f 64/3/5 60/3/5 63/3/5
f 65/3/5 60/3/5 64/3/5
f 66/3/5 60/3/5 65/3/5
f 67/1/5 62/1/5 61/1/5
f 68/3/5 63/3/5 62/3/5
f 68/1/5 62/1/5 67/1/5
f 69/1/5 64/1/5 63/1/5
f 69/3/5 63/3/5 68/3/5
f 70/3/5 65/3/5 64/3/5
f 70/1/5 64/1/5 69/1/5
f 71/1/5 66/1/5 65/1/5
f 71/3/5 65/3/5 70/3/5
f 72/1/5 66/1/5 71/1/5
f 73/3/5 68/3/5 67/3/5
f 73/3/5 69/3/5 68/3/5
f 73/3/5 72/3/5 71/3/5
f 73/3/5 71/3/5 70/3/5
f 73/3/5 70/3/5 69/3/5
f 74/3/5 72/3/5 73/3/5
f 75/3/5 72/3/5 74/3/5
f 76/3/5 72/3/5 75/3/5
f 77/3/5 72/3/5 76/3/5
f 78/3/5 72/3/5 77/3/5
f 79/2/5 74/2/5 73/2/5
f 80/3/5 75/3/5 74/3/5
f 80/2/5 74/2/5 79/2/5
f 81/1/5 76/1/5 75/1/5
f 81/3/5 75/3/5 80/3/5
f 82/3/5 77/3/5 76/3/5
f 82/1/5 76/1/5 81/1/5
f 83/2/5 78/2/5 77/2/5
f 83/3/5 77/3/5 82/3/5
f 84/2/5 78/2/5 83/2/5
f 85/2/6 86/2/6 91/2/6
f 86/3/6 87/3/6 92/3/6
f 91/2/6 86/2/6 92/2/6
f 87/1/6 88/1/6 93/1/6
f 92/3/6 87/3/6 93/3/6
f 88/3/6 89/3/6 94/3/6
f 93/1/6 88/1/6 94/1/6
f 89/2/6 90/2/6 95/2/6
f 94/3/6 89/3/6 95/3/6
f 95/2/6 90/2/6 96/2/6
f 93/3/6 94/3/6 97/3/6
f 91/3/6 92/3/6 97/3/6
f 95/3/6 96/3/6 97/3/6
f 94/3/6 95/3/6 97/3/6
f 92/3/6 93/3/6 97/3/6
f 97/3/6 96/3/6 98/3/6
f 98/3/6 96/3/6 99/3/6
f 99/3/6 96/3/6 100/3/6
f 100/3/6 96/3/6 101/3/6
f 101/3/6 96/3/6 102/3/6
f 97/1/6 98/1/6 103/1/6
f 98/3/6 99/3/6 104/3/6
f 103/1/6 98/1/6 104/1/6
f 99/1/6 100/1/6 105/1/6
f 104/3/6 99/3/6 105/3/6
f 100/3/6 101/3/6 106/3/6
f 105/1/6 100/1/6 106/1/6
f 101/1/6 102/1/6 107/1/6
f 106/3/6 101/3/6 107/3/6
f 107/1/6 102/1/6 108/1/6
f 103/3/6 104/3/6 109/3/6
f 104/3/6 105/3/6 109/3/6
f 107/3/6 108/3/6 109/3/6
f 106/3/6 107/3/6 109/3/6
f 105/3/6 106/3/6 109/3/6
f 109/3/6 108/3/6 110/3/6
f 110/3/6 108/3/6 111/3/6
f 111/3/6 108/3/6 112/3/6
f 112/3/6 108/3/6 113/3/6
f 113/3/6 108/3/6 114/3/6
f 109/2/6 110/2/6 115/2/6
f 110/3/6 111/3/6 116/3/6
f 115/2/6 110/2/6 116/2/6
f 111/1/6 112/1/6 117/1/6
f 116/3/6 111/3/6 117/3/6
f 112/3/6 113/3/6 118/3/6
f 117/1/6 112/1/6 118/1/6
f 113/2/6 114/2/6 119/2/6
f 118/3/6 113/3/6 119/3/6
f 119/2/6 114/2/6 120/2/6
