# MagicaVoxel @ Ephtracy

# group
o 

# material
mtllib road_0.mtl
usemtl palette

# normals
vn -1 0 0
vn 1 0 0
vn 0 0 1
vn 0 0 -1
vn 0 -1 0
vn 0 1 0

# texcoords
vt 0.00195313 0.5
vt 0.00585938 0.5
vt 0.0136719 0.5
vt 0.876953 0.5

# verts
v -0.9 0 0.9
v -0.9 0 0.4
v -0.9 0 -0.4
v -0.9 0 -0.9
v -0.9 0.1 0.9
v -0.9 0.1 0.4
v -0.9 0.1 -0.4
v -0.9 0.1 -0.9
v 0.9 0 0.9
v 0.9 0 0.4
v 0.9 0 -0.4
v 0.9 0 -0.9
v 0.9 0.1 0.9
v 0.9 0.1 0.4
v 0.9 0.1 -0.4
v 0.9 0.1 -0.9
v -0.9 0 0.9
v -0.9 0.1 0.9
v 0.9 0 0.9
v 0.9 0.1 0.9
v -0.9 0 -0.9
v -0.9 0.1 -0.9
v 0.9 0 -0.9
v 0.9 0.1 -0.9
v -0.9 0 0.9
v 0.9 0 0.9
v -0.6 0 0.7
v 0.6 0 0.7
v -0.7 0 0.6
v -0.6 0 0.6
v 0.6 0 0.6
v 0.7 0 0.6
v -0.8 0 0.5
v -0.7 0 0.5
v -0.4 0 0.5
v 0.4 0 0.5
v 0.7 0 0.5
v 0.8 0 0.5
v -0.9 0 0.4
v -0.8 0 0.4
v -0.5 0 0.4
v -0.4 0 0.4
v 0.4 0 0.4
v 0.5 0 0.4
v 0.8 0 0.4
v 0.9 0 0.4
v -0.6 0 0.3
v -0.5 0 0.3
v 0.5 0 0.3
v 0.6 0 0.3
v -0.7 0 0.2
v -0.6 0 0.2
v 0.6 0 0.2
v 0.7 0 0.2
v -0.1 0 0.1
v 0.1 0 0.1
v -0.1 0 -0.1
v 0.1 0 -0.1
v -0.7 0 -0.2
v -0.6 0 -0.2
v 0.6 0 -0.2
v 0.7 0 -0.2
v -0.6 0 -0.3
v -0.5 0 -0.3
v 0.5 0 -0.3
v 0.6 0 -0.3
v -0.9 0 -0.4
v -0.8 0 -0.4
v -0.5 0 -0.4
v -0.4 0 -0.4
v 0.4 0 -0.4
v 0.5 0 -0.4
v 0.8 0 -0.4
v 0.9 0 -0.4
v -0.8 0 -0.5
v -0.7 0 -0.5
v -0.4 0 -0.5
v 0.4 0 -0.5
v 0.7 0 -0.5
v 0.8 0 -0.5
v -0.7 0 -0.6
v -0.6 0 -0.6
v 0.6 0 -0.6
v 0.7 0 -0.6
v -0.6 0 -0.7
v 0.6 0 -0.7
v -0.9 0 -0.9
v 0.9 0 -0.9
v -0.9 0.1 0.9
v 0.9 0.1 0.9
v -0.6 0.1 0.7
v 0.6 0.1 0.7
v -0.7 0.1 0.6
v -0.6 0.1 0.6
v 0.6 0.1 0.6
v 0.7 0.1 0.6
v -0.8 0.1 0.5
v -0.7 0.1 0.5
v -0.4 0.1 0.5
v 0.4 0.1 0.5
v 0.7 0.1 0.5
v 0.8 0.1 0.5
v -0.9 0.1 0.4
v -0.8 0.1 0.4
v -0.5 0.1 0.4
v -0.4 0.1 0.4
v 0.4 0.1 0.4
v 0.5 0.1 0.4
v 0.8 0.1 0.4
v 0.9 0.1 0.4
v -0.6 0.1 0.3
v -0.5 0.1 0.3
v 0.5 0.1 0.3
v 0.6 0.1 0.3
v -0.7 0.1 0.2
v -0.6 0.1 0.2
v 0.6 0.1 0.2
v 0.7 0.1 0.2
v -0.1 0.1 0.1
v 0.1 0.1 0.1
v -0.1 0.1 -0.1
v 0.1 0.1 -0.1
v -0.7 0.1 -0.2
v -0.6 0.1 -0.2
v 0.6 0.1 -0.2
v 0.7 0.1 -0.2
v -0.6 0.1 -0.3
v -0.5 0.1 -0.3
v 0.5 0.1 -0.3
v 0.6 0.1 -0.3
v -0.9 0.1 -0.4
v -0.8 0.1 -0.4
v -0.5 0.1 -0.4
v -0.4 0.1 -0.4
v 0.4 0.1 -0.4
v 0.5 0.1 -0.4
v 0.8 0.1 -0.4
v 0.9 0.1 -0.4
v -0.8 0.1 -0.5
v -0.7 0.1 -0.5
v -0.4 0.1 -0.5
v 0.4 0.1 -0.5
v 0.7 0.1 -0.5
v 0.8 0.1 -0.5
v -0.7 0.1 -0.6
v -0.6 0.1 -0.6
v 0.6 0.1 -0.6
v 0.7 0.1 -0.6
v -0.6 0.1 -0.7
v 0.6 0.1 -0.7
v -0.9 0.1 -0.9
v 0.9 0.1 -0.9

# faces
f 5/1/1 2/1/1 1/1/1
f 6/3/1 3/3/1 2/3/1
f 6/1/1 2/1/1 5/1/1
f 7/1/1 4/1/1 3/1/1
f 7/3/1 3/3/1 6/3/1
f 8/1/1 4/1/1 7/1/1
f 9/1/2 10/1/2 13/1/2
f 10/3/2 11/3/2 14/3/2
f 13/1/2 10/1/2 14/1/2
f 11/1/2 12/1/2 15/1/2
f 14/3/2 11/3/2 15/3/2
f 15/1/2 12/1/2 16/1/2
f 19/1/3 18/1/3 17/1/3
f 20/1/3 18/1/3 19/1/3
f 21/1/4 22/1/4 23/1/4
f 23/1/4 22/1/4 24/1/4
f 27/1/5 26/1/5 25/1/5
f 28/1/5 26/1/5 27/1/5
f 29/1/5 27/1/5 25/1/5
f 30/3/5 28/3/5 27/3/5
f 30/1/5 27/1/5 29/1/5
f 31/1/5 26/1/5 28/1/5
f 31/3/5 28/3/5 30/3/5
f 32/1/5 26/1/5 31/1/5
f 33/1/5 29/1/5 25/1/5
f 34/3/5 30/3/5 29/3/5
f 34/1/5 29/1/5 33/1/5
f 34/3/5 31/3/5 30/3/5
f 34/3/5 32/3/5 31/3/5
f 35/3/5 32/3/5 34/3/5
f 36/3/5 32/3/5 35/3/5
f 37/1/5 26/1/5 32/1/5
f 37/3/5 32/3/5 36/3/5
f 38/1/5 26/1/5 37/1/5
f 39/1/5 33/1/5 25/1/5
f 40/3/5 34/3/5 33/3/5
f 40/1/5 33/1/5 39/1/5
f 40/3/5 35/3/5 34/3/5
f 41/3/5 35/3/5 40/3/5
f 42/4/5 36/4/5 35/4/5
f 42/3/5 35/3/5 41/3/5
f 43/3/5 38/3/5 37/3/5
f 43/4/5 36/4/5 42/4/5
f 43/3/5 37/3/5 36/3/5
f 44/3/5 38/3/5 43/3/5
f 45/1/5 26/1/5 38/1/5
f 45/3/5 38/3/5 44/3/5
f 46/1/5 26/1/5 45/1/5
f 47/3/5 41/3/5 40/3/5
f 47/3/5 40/3/5 39/3/5
f 48/4/5 44/4/5 43/4/5
f 48/3/5 41/3/5 47/3/5
f 48/4/5 42/4/5 41/4/5
f 48/4/5 43/4/5 42/4/5
f 49/3/5 45/3/5 44/3/5
f 49/4/5 44/4/5 48/4/5
f 49/3/5 46/3/5 45/3/5
f 50/3/5 46/3/5 49/3/5
f 51/3/5 47/3/5 39/3/5
f 52/4/5 48/4/5 47/4/5
f 52/3/5 47/3/5 51/3/5
f 52/4/5 49/4/5 48/4/5
f 52/4/5 50/4/5 49/4/5
f 53/3/5 46/3/5 50/3/5
f 53/4/5 50/4/5 52/4/5
f 54/3/5 46/3/5 53/3/5
f 55/4/5 52/4/5 51/4/5
f 55/4/5 53/4/5 52/4/5
f 55/4/5 54/4/5 53/4/5
f 56/4/5 54/4/5 55/4/5
f 57/4/5 55/4/5 51/4/5
f 57/2/5 56/2/5 55/2/5
f 58/4/5 54/4/5 56/4/5
f 58/2/5 56/2/5 57/2/5
f 59/3/5 51/3/5 39/3/5
f 59/4/5 57/4/5 51/4/5
f 59/4/5 58/4/5 57/4/5
f 60/4/5 58/4/5 59/4/5
f 61/4/5 54/4/5 58/4/5
f 61/4/5 58/4/5 60/4/5
f 62/3/5 46/3/5 54/3/5
f 62/4/5 54/4/5 61/4/5
f 63/4/5 61/4/5 60/4/5
f 63/3/5 60/3/5 59/3/5
f 64/4/5 61/4/5 63/4/5
f 65/4/5 61/4/5 64/4/5
f 66/3/5 62/3/5 61/3/5
f 66/4/5 61/4/5 65/4/5
f 67/3/5 59/3/5 39/3/5
f 67/3/5 63/3/5 59/3/5
f 67/3/5 64/3/5 63/3/5
f 68/3/5 64/3/5 67/3/5
f 69/4/5 65/4/5 64/4/5
f 69/3/5 64/3/5 68/3/5
f 70/4/5 65/4/5 69/4/5
f 71/4/5 65/4/5 70/4/5
f 72/3/5 66/3/5 65/3/5
f 72/4/5 65/4/5 71/4/5
f 73/3/5 46/3/5 62/3/5
f 73/3/5 66/3/5 72/3/5
f 73/3/5 62/3/5 66/3/5
f 74/3/5 46/3/5 73/3/5
f 75/1/5 68/1/5 67/1/5
f 75/3/5 70/3/5 69/3/5
f 75/3/5 69/3/5 68/3/5
f 76/3/5 70/3/5 75/3/5
f 77/4/5 71/4/5 70/4/5
f 77/3/5 70/3/5 76/3/5
f 78/3/5 72/3/5 71/3/5
f 78/4/5 71/4/5 77/4/5
f 78/3/5 73/3/5 72/3/5
f 79/3/5 73/3/5 78/3/5
f 80/1/5 74/1/5 73/1/5
f 80/3/5 73/3/5 79/3/5
f 81/3/5 77/3/5 76/3/5
f 81/3/5 79/3/5 78/3/5
f 81/1/5 76/1/5 75/1/5
f 81/3/5 78/3/5 77/3/5
f 82/3/5 79/3/5 81/3/5
f 83/3/5 79/3/5 82/3/5
f 84/1/5 80/1/5 79/1/5
f 84/3/5 79/3/5 83/3/5
f 85/3/5 83/3/5 82/3/5
f 85/1/5 82/1/5 81/1/5
f 86/1/5 84/1/5 83/1/5
f 86/3/5 83/3/5 85/3/5
f 87/1/5 75/1/5 67/1/5
f 87/1/5 81/1/5 75/1/5
f 87/1/5 86/1/5 85/1/5
f 87/1/5 85/1/5 81/1/5
f 88/1/5 74/1/5 80/1/5
f 88/1/5 86/1/5 87/1/5
f 88/1/5 80/1/5 84/1/5
f 88/1/5 84/1/5 86/1/5
f 89/1/6 90/1/6 91/1/6
f 91/1/6 90/1/6 92/1/6
f 89/1/6 91/1/6 93/1/6
f 91/3/6 92/3/6 94/3/6
f 93/1/6 91/1/6 94/1/6
f 92/1/6 90/1/6 95/1/6
f 94/3/6 92/3/6 95/3/6
f 95/1/6 90/1/6 96/1/6
f 89/1/6 93/1/6 97/1/6
f 93/3/6 94/3/6 98/3/6
f 97/1/6 93/1/6 98/1/6
f 94/3/6 95/3/6 98/3/6
f 95/3/6 96/3/6 98/3/6
f 98/3/6 96/3/6 99/3/6
f 99/3/6 96/3/6 100/3/6
f 96/1/6 90/1/6 101/1/6
f 100/3/6 96/3/6 101/3/6
f 101/1/6 90/1/6 102/1/6
f 89/1/6 97/1/6 103/1/6
f 97/3/6 98/3/6 104/3/6
f 103/1/6 97/1/6 104/1/6
f 98/3/6 99/3/6 104/3/6
f 104/3/6 99/3/6 105/3/6
f 99/4/6 100/4/6 106/4/6
f 105/3/6 99/3/6 106/3/6
f 101/3/6 102/3/6 107/3/6
f 106/4/6 100/4/6 107/4/6
f 100/3/6 101/3/6 107/3/6
f 107/3/6 102/3/6 108/3/6
f 102/1/6 90/1/6 109/1/6
f 108/3/6 102/3/6 109/3/6
f 109/1/6 90/1/6 110/1/6
f 104/3/6 105/3/6 111/3/6
f 103/3/6 104/3/6 111/3/6
f 107/4/6 108/4/6 112/4/6
f 111/3/6 105/3/6 112/3/6
f 105/4/6 106/4/6 112/4/6
f 106/4/6 107/4/6 112/4/6
f 108/3/6 109/3/6 113/3/6
f 112/4/6 108/4/6 113/4/6
f 109/3/6 110/3/6 113/3/6
f 113/3/6 110/3/6 114/3/6
f 103/3/6 111/3/6 115/3/6
f 111/4/6 112/4/6 116/4/6
f 115/3/6 111/3/6 116/3/6
f 112/4/6 113/4/6 116/4/6
f 113/4/6 114/4/6 116/4/6
f 114/3/6 110/3/6 117/3/6
f 116/4/6 114/4/6 117/4/6
f 117/3/6 110/3/6 118/3/6
f 115/4/6 116/4/6 119/4/6
f 116/4/6 117/4/6 119/4/6
f 117/4/6 118/4/6 119/4/6
f 119/4/6 118/4/6 120/4/6
f 115/4/6 119/4/6 121/4/6
f 119/2/6 120/2/6 121/2/6
f 120/4/6 118/4/6 122/4/6
f 121/2/6 120/2/6 122/2/6
f 103/3/6 115/3/6 123/3/6
f 115/4/6 121/4/6 123/4/6
f 121/4/6 122/4/6 123/4/6
f 123/4/6 122/4/6 124/4/6
f 122/4/6 118/4/6 125/4/6
f 124/4/6 122/4/6 125/4/6
f 118/3/6 110/3/6 126/3/6
f 125/4/6 118/4/6 126/4/6
f 124/4/6 125/4/6 127/4/6
f 123/3/6 124/3/6 127/3/6
f 127/4/6 125/4/6 128/4/6
f 128/4/6 125/4/6 129/4/6
f 125/3/6 126/3/6 130/3/6
f 129/4/6 125/4/6 130/4/6
f 103/3/6 123/3/6 131/3/6
f 123/3/6 127/3/6 131/3/6
f 127/3/6 128/3/6 131/3/6
f 131/3/6 128/3/6 132/3/6
f 128/4/6 129/4/6 133/4/6
f 132/3/6 128/3/6 133/3/6
f 133/4/6 129/4/6 134/4/6
f 134/4/6 129/4/6 135/4/6
f 129/3/6 130/3/6 136/3/6
f 135/4/6 129/4/6 136/4/6
f 126/3/6 110/3/6 137/3/6
f 136/3/6 130/3/6 137/3/6
f 130/3/6 126/3/6 137/3/6
f 137/3/6 110/3/6 138/3/6
f 131/1/6 132/1/6 139/1/6
f 133/3/6 134/3/6 139/3/6
f 132/3/6 133/3/6 139/3/6
f 139/3/6 134/3/6 140/3/6
f 134/4/6 135/4/6 141/4/6
f 140/3/6 134/3/6 141/3/6
f 135/3/6 136/3/6 142/3/6
f 141/4/6 135/4/6 142/4/6
f 136/3/6 137/3/6 142/3/6
f 142/3/6 137/3/6 143/3/6
f 137/1/6 138/1/6 144/1/6
f 143/3/6 137/3/6 144/3/6
f 140/3/6 141/3/6 145/3/6
f 142/3/6 143/3/6 145/3/6
f 139/1/6 140/1/6 145/1/6
f 141/3/6 142/3/6 145/3/6
f 145/3/6 143/3/6 146/3/6
f 146/3/6 143/3/6 147/3/6
f 143/1/6 144/1/6 148/1/6
f 147/3/6 143/3/6 148/3/6
f 146/3/6 147/3/6 149/3/6
f 145/1/6 146/1/6 149/1/6
f 147/1/6 148/1/6 150/1/6
f 149/3/6 147/3/6 150/3/6
f 131/1/6 139/1/6 151/1/6
f 139/1/6 145/1/6 151/1/6
f 149/1/6 150/1/6 151/1/6
f 145/1/6 149/1/6 151/1/6
f 144/1/6 138/1/6 152/1/6
f 151/1/6 150/1/6 152/1/6
f 148/1/6 144/1/6 152/1/6
f 150/1/6 148/1/6 152/1/6
