# MagicaVoxel @ Ephtracy

# group
o 

# material
mtllib 12.mtl
usemtl palette

# normals
vn -1 0 0
vn 1 0 0
vn 0 0 1
vn 0 0 -1
vn 0 -1 0
vn 0 1 0

# texcoords
vt 0.00195313 0.5
vt 0.00585938 0.5
vt 0.00976563 0.5
vt 0.0136719 0.5
vt 0.0175781 0.5
vt 0.0214844 0.5

# verts
v -0.9 0 0.9
v -0.9 0 -0.9
v -0.9 0.1 0.9
v -0.9 0.1 -0.9
v -0.7 0.1 0.7
v -0.7 0.1 -0.7
v -0.7 0.2 0.7
v -0.7 0.2 -0.7
v -0.7 0.8 0.7
v -0.7 0.8 0.6
v -0.7 0.8 -0.6
v -0.7 0.8 -0.7
v -0.7 0.9 0.7
v -0.7 0.9 0.6
v -0.7 0.9 0.5
v -0.7 0.9 -0.5
v -0.7 0.9 -0.6
v -0.7 0.9 -0.7
v -0.7 1 0.6
v -0.7 1 0.5
v -0.7 1 0.4
v -0.7 1 -0.4
v -0.7 1 -0.5
v -0.7 1 -0.6
v -0.7 1.1 0.5
v -0.7 1.1 0.4
v -0.7 1.1 0.3
v -0.7 1.1 -0.3
v -0.7 1.1 -0.4
v -0.7 1.1 -0.5
v -0.7 1.2 0.4
v -0.7 1.2 0.3
v -0.7 1.2 0.2
v -0.7 1.2 -0.2
v -0.7 1.2 -0.3
v -0.7 1.2 -0.4
v -0.7 1.3 0.3
v -0.7 1.3 0.2
v -0.7 1.3 0.1
v -0.7 1.3 -0.1
v -0.7 1.3 -0.2
v -0.7 1.3 -0.3
v -0.7 1.4 0.2
v -0.7 1.4 0.1
v -0.7 1.4 -0.1
v -0.7 1.4 -0.2
v -0.7 1.5 0.1
v -0.7 1.5 -0.1
v -0.6 0.2 0.6
v -0.6 0.2 -0.6
v -0.6 0.8 0.6
v -0.6 0.8 -0.6
v -0.6 0.9 0.6
v -0.6 0.9 0.5
v -0.6 0.9 0.2
v -0.6 0.9 -0.2
v -0.6 0.9 -0.5
v -0.6 0.9 -0.6
v -0.6 1 0.5
v -0.6 1 0.4
v -0.6 1 0.2
v -0.6 1 0.1
v -0.6 1 -0.1
v -0.6 1 -0.2
v -0.6 1 -0.4
v -0.6 1 -0.5
v -0.6 1.1 0.4
v -0.6 1.1 0.3
v -0.6 1.1 0.1
v -0.6 1.1 -0.1
v -0.6 1.1 -0.3
v -0.6 1.1 -0.4
v -0.6 1.2 0.3
v -0.6 1.2 0.2
v -0.6 1.2 -0.2
v -0.6 1.2 -0.3
v -0.6 1.3 0.2
v -0.6 1.3 0.1
v -0.6 1.3 -0.1
v -0.6 1.3 -0.2
v -0.6 1.4 0.1
v -0.6 1.4 -0.1
v -0.5 0.9 0.2
v -0.5 0.9 -0.2
v -0.5 1 0.2
v -0.5 1 0.1
v -0.5 1 -0.1
v -0.5 1 -0.2
v -0.5 1.1 0.1
v -0.5 1.1 -0.1
v -0.1 0.2 0.6
v -0.1 0.2 0.5
v -0.1 0.7 0.6
v -0.1 0.7 0.5
v 0.2 0.1 0.7
v 0.2 0.1 0.6
v 0.2 0.2 0.7
v 0.2 0.2 0.6
v 0.3 0.1 0.6
v 0.3 0.1 0.5
v 0.3 0.2 0.6
v 0.3 0.2 0.5
v 0.4 0.1 0.7
v 0.4 0.1 0.6
v 0.4 0.2 0.7
v 0.4 0.2 0.6
v 0.5 0.1 0.6
v 0.5 0.1 0.5
v 0.5 0.2 0.6
v 0.5 0.2 0.5
v 0.5 0.5 0.3
v 0.5 0.5 0.2
v 0.5 0.9 0.3
v 0.5 0.9 0.2
v 0.6 0.1 0.7
v 0.6 0.1 0.6
v 0.6 0.2 0.7
v 0.6 0.2 0.6
v -0.5 0.2 0.6
v -0.5 0.2 0.5
v -0.5 0.7 0.6
v -0.5 0.7 0.5
v 0 0.2 0.6
v 0 0.2 0.3
v 0 0.8 0.6
v 0 0.9 0.6
v 0 0.9 0.5
v 0 1 0.5
v 0 1 0.4
v 0 1.1 0.4
v 0 1.1 0.3
v 0.1 0.1 0.7
v 0.1 0.1 0.4
v 0.1 0.2 0.7
v 0.1 0.2 0.4
v 0.1 0.5 0.3
v 0.1 0.5 0.2
v 0.1 0.8 0.7
v 0.1 0.8 0.6
v 0.1 0.9 0.7
v 0.1 0.9 0.6
v 0.1 0.9 0.5
v 0.1 0.9 0.3
v 0.1 0.9 0.2
v 0.1 1 0.6
v 0.1 1 0.5
v 0.1 1 0.4
v 0.1 1.1 0.5
v 0.1 1.1 0.4
v 0.3 0.1 0.7
v 0.3 0.1 0.6
v 0.3 0.2 0.7
v 0.3 0.2 0.6
v 0.4 0.1 0.6
v 0.4 0.1 0.5
v 0.4 0.2 0.6
v 0.4 0.2 0.5
v 0.5 0.1 0.7
v 0.5 0.1 0.6
v 0.5 0.2 0.7
v 0.5 0.2 0.6
v 0.6 0.2 0.3
v 0.6 0.2 -0.6
v 0.6 0.8 -0.6
v 0.6 0.9 -0.5
v 0.6 0.9 -0.6
v 0.6 1 -0.4
v 0.6 1 -0.5
v 0.6 1.1 0.3
v 0.6 1.1 -0.3
v 0.6 1.1 -0.4
v 0.6 1.2 0.3
v 0.6 1.2 0.2
v 0.6 1.2 -0.2
v 0.6 1.2 -0.3
v 0.6 1.3 0.2
v 0.6 1.3 0.1
v 0.6 1.3 -0.1
v 0.6 1.3 -0.2
v 0.6 1.4 0.1
v 0.6 1.4 -0.1
v 0.7 0.1 0.7
v 0.7 0.1 0.5
v 0.7 0.1 0.4
v 0.7 0.1 -0.7
v 0.7 0.2 0.7
v 0.7 0.2 0.5
v 0.7 0.2 0.4
v 0.7 0.2 -0.7
v 0.7 0.8 -0.6
v 0.7 0.8 -0.7
v 0.7 0.9 -0.5
v 0.7 0.9 -0.6
v 0.7 0.9 -0.7
v 0.7 1 -0.4
v 0.7 1 -0.5
v 0.7 1 -0.6
v 0.7 1.1 0.4
v 0.7 1.1 0.3
v 0.7 1.1 -0.3
v 0.7 1.1 -0.4
v 0.7 1.1 -0.5
v 0.7 1.2 0.4
v 0.7 1.2 0.3
v 0.7 1.2 0.2
v 0.7 1.2 -0.2
v 0.7 1.2 -0.3
v 0.7 1.2 -0.4
v 0.7 1.3 0.3
v 0.7 1.3 0.2
v 0.7 1.3 0.1
v 0.7 1.3 -0.1
v 0.7 1.3 -0.2
v 0.7 1.3 -0.3
v 0.7 1.4 0.2
v 0.7 1.4 0.1
v 0.7 1.4 -0.1
v 0.7 1.4 -0.2
v 0.7 1.5 0.1
v 0.7 1.5 -0.1
v 0.9 0 0.9
v 0.9 0 -0.9
v 0.9 0.1 0.9
v 0.9 0.1 -0.9
v -0.9 0 0.9
v -0.9 0.1 0.9
v 0.9 0 0.9
v 0.9 0.1 0.9
v -0.7 0.1 0.7
v -0.7 0.2 0.7
v -0.7 0.8 0.7
v -0.7 0.9 0.7
v 0.1 0.1 0.7
v 0.1 0.2 0.7
v 0.1 0.8 0.7
v 0.1 0.9 0.7
v 0.2 0.1 0.7
v 0.2 0.2 0.7
v 0.3 0.1 0.7
v 0.3 0.2 0.7
v 0.4 0.1 0.7
v 0.4 0.2 0.7
v 0.5 0.1 0.7
v 0.5 0.2 0.7
v 0.6 0.1 0.7
v 0.6 0.2 0.7
v 0.7 0.1 0.7
v 0.7 0.2 0.7
v -0.7 0.9 0.6
v -0.7 1 0.6
v -0.6 0.2 0.6
v -0.6 0.8 0.6
v -0.5 0.2 0.6
v -0.5 0.7 0.6
v -0.1 0.2 0.6
v -0.1 0.7 0.6
v 0 0.2 0.6
v 0 0.8 0.6
v 0.1 0.9 0.6
v 0.1 1 0.6
v 0.3 0.1 0.6
v 0.3 0.2 0.6
v 0.4 0.1 0.6
v 0.4 0.2 0.6
v 0.5 0.1 0.6
v 0.5 0.2 0.6
v 0.6 0.1 0.6
v 0.6 0.2 0.6
v -0.7 1 0.5
v -0.7 1.1 0.5
v -0.5 0.2 0.5
v -0.5 0.7 0.5
v -0.1 0.2 0.5
v -0.1 0.7 0.5
v 0.1 1 0.5
v 0.1 1.1 0.5
v -0.7 1.1 0.4
v -0.7 1.2 0.4
v 0.1 0.1 0.4
v 0.1 0.2 0.4
v 0.1 1.1 0.4
v 0.7 0.1 0.4
v 0.7 0.2 0.4
v 0.7 1.1 0.4
v 0.7 1.2 0.4
v -0.7 1.2 0.3
v -0.7 1.3 0.3
v 0 0.2 0.3
v 0 1.1 0.3
v 0.1 0.5 0.3
v 0.1 0.9 0.3
v 0.5 0.5 0.3
v 0.5 0.9 0.3
v 0.6 0.2 0.3
v 0.6 1.1 0.3
v 0.7 1.2 0.3
v 0.7 1.3 0.3
v -0.7 1.3 0.2
v -0.7 1.4 0.2
v 0.1 0.5 0.2
v 0.1 0.9 0.2
v 0.5 0.5 0.2
v 0.5 0.9 0.2
v 0.7 1.3 0.2
v 0.7 1.4 0.2
v -0.7 1.4 0.1
v -0.7 1.5 0.1
v 0.7 1.4 0.1
v 0.7 1.5 0.1
v -0.7 1.3 -0.1
v -0.7 1.4 -0.1
v -0.6 1 -0.1
v -0.6 1.1 -0.1
v -0.6 1.3 -0.1
v -0.6 1.4 -0.1
v -0.5 1 -0.1
v -0.5 1.1 -0.1
v 0.6 1.3 -0.1
v 0.6 1.4 -0.1
v 0.7 1.3 -0.1
v 0.7 1.4 -0.1
v -0.7 1.2 -0.2
v -0.7 1.3 -0.2
v -0.6 0.9 -0.2
v -0.6 1 -0.2
v -0.6 1.2 -0.2
v -0.6 1.3 -0.2
v -0.5 0.9 -0.2
v -0.5 1 -0.2
v 0.6 1.2 -0.2
v 0.6 1.3 -0.2
v 0.7 1.2 -0.2
v 0.7 1.3 -0.2
v -0.7 1.1 -0.3
v -0.7 1.2 -0.3
v -0.6 1.1 -0.3
v -0.6 1.2 -0.3
v 0.6 1.1 -0.3
v 0.6 1.2 -0.3
v 0.7 1.1 -0.3
v 0.7 1.2 -0.3
v -0.7 1 -0.4
v -0.7 1.1 -0.4
v -0.6 1 -0.4
v -0.6 1.1 -0.4
v 0.6 1 -0.4
v 0.6 1.1 -0.4
v 0.7 1 -0.4
v 0.7 1.1 -0.4
v -0.7 0.9 -0.5
v -0.7 1 -0.5
v -0.6 0.9 -0.5
v -0.6 1 -0.5
v 0.6 0.9 -0.5
v 0.6 1 -0.5
v 0.7 0.9 -0.5
v 0.7 1 -0.5
v -0.7 0.8 -0.6
v -0.7 0.9 -0.6
v -0.6 0.8 -0.6
v -0.6 0.9 -0.6
v 0.6 0.8 -0.6
v 0.6 0.9 -0.6
v 0.7 0.8 -0.6
v 0.7 0.9 -0.6
v -0.7 0.8 0.6
v -0.7 0.9 0.6
v -0.6 0.8 0.6
v -0.6 0.9 0.6
v 0 0.8 0.6
v 0 0.9 0.6
v 0.1 0.8 0.6
v 0.1 0.9 0.6
v 0.2 0.1 0.6
v 0.2 0.2 0.6
v 0.3 0.1 0.6
v 0.3 0.2 0.6
v 0.4 0.1 0.6
v 0.4 0.2 0.6
v 0.5 0.1 0.6
v 0.5 0.2 0.6
v -0.7 0.9 0.5
v -0.7 1 0.5
v -0.6 0.9 0.5
v -0.6 1 0.5
v 0 0.9 0.5
v 0 1 0.5
v 0.1 0.9 0.5
v 0.1 1 0.5
v 0.3 0.1 0.5
v 0.3 0.2 0.5
v 0.4 0.1 0.5
v 0.4 0.2 0.5
v 0.5 0.1 0.5
v 0.5 0.2 0.5
v 0.7 0.1 0.5
v 0.7 0.2 0.5
v -0.7 1 0.4
v -0.7 1.1 0.4
v -0.6 1 0.4
v -0.6 1.1 0.4
v 0 1 0.4
v 0 1.1 0.4
v 0.1 1 0.4
v 0.1 1.1 0.4
v -0.7 1.1 0.3
v -0.7 1.2 0.3
v -0.6 1.1 0.3
v -0.6 1.2 0.3
v 0.6 1.1 0.3
v 0.6 1.2 0.3
v 0.7 1.1 0.3
v 0.7 1.2 0.3
v -0.7 1.2 0.2
v -0.7 1.3 0.2
v -0.6 0.9 0.2
v -0.6 1 0.2
v -0.6 1.2 0.2
v -0.6 1.3 0.2
v -0.5 0.9 0.2
v -0.5 1 0.2
v 0.6 1.2 0.2
v 0.6 1.3 0.2
v 0.7 1.2 0.2
v 0.7 1.3 0.2
v -0.7 1.3 0.1
v -0.7 1.4 0.1
v -0.6 1 0.1
v -0.6 1.1 0.1
v -0.6 1.3 0.1
v -0.6 1.4 0.1
v -0.5 1 0.1
v -0.5 1.1 0.1
v 0.6 1.3 0.1
v 0.6 1.4 0.1
v 0.7 1.3 0.1
v 0.7 1.4 0.1
v -0.7 1.4 -0.1
v -0.7 1.5 -0.1
v 0.7 1.4 -0.1
v 0.7 1.5 -0.1
v -0.7 1.3 -0.2
v -0.7 1.4 -0.2
v 0.7 1.3 -0.2
v 0.7 1.4 -0.2
v -0.7 1.2 -0.3
v -0.7 1.3 -0.3
v 0.7 1.2 -0.3
v 0.7 1.3 -0.3
v -0.7 1.1 -0.4
v -0.7 1.2 -0.4
v 0.7 1.1 -0.4
v 0.7 1.2 -0.4
v -0.7 1 -0.5
v -0.7 1.1 -0.5
v 0.7 1 -0.5
v 0.7 1.1 -0.5
v -0.7 0.9 -0.6
v -0.7 1 -0.6
v -0.6 0.2 -0.6
v -0.6 0.8 -0.6
v 0.6 0.2 -0.6
v 0.6 0.8 -0.6
v 0.7 0.9 -0.6
v 0.7 1 -0.6
v -0.7 0.1 -0.7
v -0.7 0.2 -0.7
v -0.7 0.8 -0.7
v -0.7 0.9 -0.7
v 0.7 0.1 -0.7
v 0.7 0.2 -0.7
v 0.7 0.8 -0.7
v 0.7 0.9 -0.7
v -0.9 0 -0.9
v -0.9 0.1 -0.9
v 0.9 0 -0.9
v 0.9 0.1 -0.9
v -0.9 0 0.9
v 0.9 0 0.9
v -0.9 0 -0.9
v 0.9 0 -0.9
v -0.5 0.7 0.6
v -0.1 0.7 0.6
v -0.5 0.7 0.5
v -0.1 0.7 0.5
v -0.7 0.8 0.7
v 0.1 0.8 0.7
v -0.7 0.8 0.6
v -0.6 0.8 0.6
v 0 0.8 0.6
v 0.1 0.8 0.6
v -0.7 0.8 -0.6
v -0.6 0.8 -0.6
v 0.6 0.8 -0.6
v 0.7 0.8 -0.6
v -0.7 0.8 -0.7
v 0.7 0.8 -0.7
v -0.7 0.9 0.6
v -0.6 0.9 0.6
v 0 0.9 0.6
v 0.1 0.9 0.6
v -0.7 0.9 0.5
v -0.6 0.9 0.5
v 0 0.9 0.5
v 0.1 0.9 0.5
v 0.1 0.9 0.3
v 0.5 0.9 0.3
v 0.1 0.9 0.2
v 0.5 0.9 0.2
v -0.7 0.9 -0.5
v -0.6 0.9 -0.5
v 0.6 0.9 -0.5
v 0.7 0.9 -0.5
v -0.7 0.9 -0.6
v -0.6 0.9 -0.6
v 0.6 0.9 -0.6
v 0.7 0.9 -0.6
v -0.7 1 0.5
v -0.6 1 0.5
v 0 1 0.5
v 0.1 1 0.5
v -0.7 1 0.4
v -0.6 1 0.4
v 0 1 0.4
v 0.1 1 0.4
v -0.6 1 0.2
v -0.5 1 0.2
v -0.6 1 0.1
v -0.5 1 0.1
v -0.6 1 -0.1
v -0.5 1 -0.1
v -0.6 1 -0.2
v -0.5 1 -0.2
v -0.7 1 -0.4
v -0.6 1 -0.4
v 0.6 1 -0.4
v 0.7 1 -0.4
v -0.7 1 -0.5
v -0.6 1 -0.5
v 0.6 1 -0.5
v 0.7 1 -0.5
v -0.7 1.1 0.4
v -0.6 1.1 0.4
v 0 1.1 0.4
v 0.1 1.1 0.4
v 0.7 1.1 0.4
v -0.7 1.1 0.3
v -0.6 1.1 0.3
v 0 1.1 0.3
v 0.6 1.1 0.3
v 0.7 1.1 0.3
v -0.6 1.1 0.1
v -0.5 1.1 0.1
v -0.6 1.1 -0.1
v -0.5 1.1 -0.1
v -0.7 1.1 -0.3
v -0.6 1.1 -0.3
v 0.6 1.1 -0.3
v 0.7 1.1 -0.3
v -0.7 1.1 -0.4
v -0.6 1.1 -0.4
v 0.6 1.1 -0.4
v 0.7 1.1 -0.4
v -0.7 1.2 0.3
v -0.6 1.2 0.3
v 0.6 1.2 0.3
v 0.7 1.2 0.3
v -0.7 1.2 0.2
v -0.6 1.2 0.2
v 0.6 1.2 0.2
v 0.7 1.2 0.2
v -0.7 1.2 -0.2
v -0.6 1.2 -0.2
v 0.6 1.2 -0.2
v 0.7 1.2 -0.2
v -0.7 1.2 -0.3
v -0.6 1.2 -0.3
v 0.6 1.2 -0.3
v 0.7 1.2 -0.3
v -0.7 1.3 0.2
v -0.6 1.3 0.2
v 0.6 1.3 0.2
v 0.7 1.3 0.2
v -0.7 1.3 0.1
v -0.6 1.3 0.1
v 0.6 1.3 0.1
v 0.7 1.3 0.1
v -0.7 1.3 -0.1
v -0.6 1.3 -0.1
v 0.6 1.3 -0.1
v 0.7 1.3 -0.1
v -0.7 1.3 -0.2
v -0.6 1.3 -0.2
v 0.6 1.3 -0.2
v 0.7 1.3 -0.2
v -0.7 1.4 0.1
v -0.6 1.4 0.1
v 0.6 1.4 0.1
v 0.7 1.4 0.1
v -0.7 1.4 -0.1
v -0.6 1.4 -0.1
v 0.6 1.4 -0.1
v 0.7 1.4 -0.1
v -0.9 0.1 0.9
v 0.9 0.1 0.9
v -0.7 0.1 0.7
v 0.1 0.1 0.7
v 0.2 0.1 0.7
v 0.3 0.1 0.7
v 0.4 0.1 0.7
v 0.5 0.1 0.7
v 0.6 0.1 0.7
v 0.7 0.1 0.7
v 0.2 0.1 0.6
v 0.3 0.1 0.6
v 0.4 0.1 0.6
v 0.5 0.1 0.6
v 0.6 0.1 0.6
v 0.3 0.1 0.5
v 0.4 0.1 0.5
v 0.5 0.1 0.5
v 0.7 0.1 0.5
v 0.1 0.1 0.4
v 0.7 0.1 0.4
v -0.7 0.1 -0.7
v 0.7 0.1 -0.7
v -0.9 0.1 -0.9
v 0.9 0.1 -0.9
v -0.7 0.2 0.7
v 0.1 0.2 0.7
v 0.2 0.2 0.7
v 0.3 0.2 0.7
v 0.4 0.2 0.7
v 0.5 0.2 0.7
v 0.6 0.2 0.7
v 0.7 0.2 0.7
v -0.6 0.2 0.6
v -0.5 0.2 0.6
v -0.1 0.2 0.6
v 0 0.2 0.6
v 0.2 0.2 0.6
v 0.3 0.2 0.6
v 0.4 0.2 0.6
v 0.5 0.2 0.6
v 0.6 0.2 0.6
v -0.5 0.2 0.5
v -0.1 0.2 0.5
v 0.3 0.2 0.5
v 0.4 0.2 0.5
v 0.5 0.2 0.5
v 0.7 0.2 0.5
v 0.1 0.2 0.4
v 0.7 0.2 0.4
v 0 0.2 0.3
v 0.6 0.2 0.3
v -0.6 0.2 -0.6
v 0.6 0.2 -0.6
v -0.7 0.2 -0.7
v 0.7 0.2 -0.7
v 0.1 0.5 0.3
v 0.5 0.5 0.3
v 0.1 0.5 0.2
v 0.5 0.5 0.2
v -0.7 0.9 0.7
v 0.1 0.9 0.7
v -0.7 0.9 0.6
v 0.1 0.9 0.6
v -0.6 0.9 0.2
v -0.5 0.9 0.2
v -0.6 0.9 -0.2
v -0.5 0.9 -0.2
v -0.7 0.9 -0.6
v 0.7 0.9 -0.6
v -0.7 0.9 -0.7
v 0.7 0.9 -0.7
v -0.7 1 0.6
v 0.1 1 0.6
v -0.7 1 0.5
v 0.1 1 0.5
v -0.7 1 -0.5
v 0.7 1 -0.5
v -0.7 1 -0.6
v 0.7 1 -0.6
v -0.7 1.1 0.5
v 0.1 1.1 0.5
v -0.7 1.1 0.4
v 0.1 1.1 0.4
v -0.7 1.1 -0.4
v 0.7 1.1 -0.4
v -0.7 1.1 -0.5
v 0.7 1.1 -0.5
v -0.7 1.2 0.4
v 0.7 1.2 0.4
v -0.7 1.2 0.3
v 0.7 1.2 0.3
v -0.7 1.2 -0.3
v 0.7 1.2 -0.3
v -0.7 1.2 -0.4
v 0.7 1.2 -0.4
v -0.7 1.3 0.3
v 0.7 1.3 0.3
v -0.7 1.3 0.2
v 0.7 1.3 0.2
v -0.7 1.3 -0.2
v 0.7 1.3 -0.2
v -0.7 1.3 -0.3
v 0.7 1.3 -0.3
v -0.7 1.4 0.2
v 0.7 1.4 0.2
v -0.7 1.4 0.1
v 0.7 1.4 0.1
v -0.7 1.4 -0.1
v 0.7 1.4 -0.1
v -0.7 1.4 -0.2
v 0.7 1.4 -0.2
v -0.7 1.5 0.1
v 0.7 1.5 0.1
v -0.7 1.5 -0.1
v 0.7 1.5 -0.1

# faces
f 3/1/1 2/1/1 1/1/1
f 4/1/1 2/1/1 3/1/1
f 7/3/1 6/3/1 5/3/1
f 8/3/1 6/3/1 7/3/1
f 13/5/1 10/5/1 9/5/1
f 14/5/1 10/5/1 13/5/1
f 17/5/1 12/5/1 11/5/1
f 18/5/1 12/5/1 17/5/1
f 19/5/1 15/5/1 14/5/1
f 20/5/1 15/5/1 19/5/1
f 23/5/1 17/5/1 16/5/1
f 24/5/1 17/5/1 23/5/1
f 25/5/1 21/5/1 20/5/1
f 26/5/1 21/5/1 25/5/1
f 29/5/1 23/5/1 22/5/1
f 30/5/1 23/5/1 29/5/1
f 31/5/1 27/5/1 26/5/1
f 32/5/1 27/5/1 31/5/1
f 35/5/1 29/5/1 28/5/1
f 36/5/1 29/5/1 35/5/1
f 37/5/1 33/5/1 32/5/1
f 38/5/1 33/5/1 37/5/1
f 41/5/1 35/5/1 34/5/1
f 42/5/1 35/5/1 41/5/1
f 43/5/1 39/5/1 38/5/1
f 44/5/1 39/5/1 43/5/1
f 45/5/1 41/5/1 40/5/1
f 46/5/1 41/5/1 45/5/1
f 47/5/1 45/5/1 44/5/1
f 48/5/1 45/5/1 47/5/1
f 51/2/1 50/2/1 49/2/1
f 52/2/1 50/2/1 51/2/1
f 53/2/1 52/2/1 51/2/1
f 54/2/1 52/2/1 53/2/1
f 55/2/1 52/2/1 54/2/1
f 56/2/1 52/2/1 55/2/1
f 57/2/1 52/2/1 56/2/1
f 58/2/1 52/2/1 57/2/1
f 59/2/1 55/2/1 54/2/1
f 60/2/1 55/2/1 59/2/1
f 61/2/1 55/2/1 60/2/1
f 64/2/1 57/2/1 56/2/1
f 65/2/1 57/2/1 64/2/1
f 66/2/1 57/2/1 65/2/1
f 67/2/1 62/2/1 61/2/1
f 67/2/1 61/2/1 60/2/1
f 68/2/1 62/2/1 67/2/1
f 69/2/1 62/2/1 68/2/1
f 70/2/1 65/2/1 64/2/1
f 70/2/1 64/2/1 63/2/1
f 71/2/1 65/2/1 70/2/1
f 72/2/1 65/2/1 71/2/1
f 73/2/1 69/2/1 68/2/1
f 73/2/1 71/2/1 70/2/1
f 73/2/1 70/2/1 69/2/1
f 74/2/1 71/2/1 73/2/1
f 75/2/1 71/2/1 74/2/1
f 76/2/1 71/2/1 75/2/1
f 77/2/1 75/2/1 74/2/1
f 78/2/1 75/2/1 77/2/1
f 79/2/1 75/2/1 78/2/1
f 80/2/1 75/2/1 79/2/1
f 81/2/1 79/2/1 78/2/1
f 82/2/1 79/2/1 81/2/1
f 85/2/1 84/2/1 83/2/1
f 86/2/1 84/2/1 85/2/1
f 87/2/1 84/2/1 86/2/1
f 88/2/1 84/2/1 87/2/1
f 89/2/1 87/2/1 86/2/1
f 90/2/1 87/2/1 89/2/1
f 93/2/1 92/2/1 91/2/1
f 94/2/1 92/2/1 93/2/1
f 97/6/1 96/6/1 95/6/1
f 98/6/1 96/6/1 97/6/1
f 101/6/1 100/6/1 99/6/1
f 102/6/1 100/6/1 101/6/1
f 105/6/1 104/6/1 103/6/1
f 106/6/1 104/6/1 105/6/1
f 109/6/1 108/6/1 107/6/1
f 110/6/1 108/6/1 109/6/1
f 113/2/1 112/2/1 111/2/1
f 114/2/1 112/2/1 113/2/1
f 117/6/1 116/6/1 115/6/1
f 118/6/1 116/6/1 117/6/1
f 119/2/2 120/2/2 121/2/2
f 121/2/2 120/2/2 122/2/2
f 123/2/2 124/2/2 125/2/2
f 125/2/2 124/2/2 126/2/2
f 126/2/2 124/2/2 127/2/2
f 127/2/2 124/2/2 128/2/2
f 128/2/2 124/2/2 129/2/2
f 129/2/2 124/2/2 130/2/2
f 130/2/2 124/2/2 131/2/2
f 132/3/2 133/3/2 134/3/2
f 134/3/2 133/3/2 135/3/2
f 138/5/2 139/5/2 140/5/2
f 140/5/2 139/5/2 141/5/2
f 136/2/2 137/2/2 143/2/2
f 143/2/2 137/2/2 144/2/2
f 141/5/2 142/5/2 145/5/2
f 145/5/2 142/5/2 146/5/2
f 146/5/2 147/5/2 148/5/2
f 148/5/2 147/5/2 149/5/2
f 150/6/2 151/6/2 152/6/2
f 152/6/2 151/6/2 153/6/2
f 154/6/2 155/6/2 156/6/2
f 156/6/2 155/6/2 157/6/2
f 158/6/2 159/6/2 160/6/2
f 160/6/2 159/6/2 161/6/2
f 162/2/2 163/2/2 164/2/2
f 162/2/2 164/2/2 165/2/2
f 165/2/2 164/2/2 166/2/2
f 162/2/2 165/2/2 167/2/2
f 167/2/2 165/2/2 168/2/2
f 162/2/2 167/2/2 169/2/2
f 169/2/2 167/2/2 170/2/2
f 170/2/2 167/2/2 171/2/2
f 169/2/2 170/2/2 172/2/2
f 172/2/2 170/2/2 173/2/2
f 173/2/2 170/2/2 174/2/2
f 174/2/2 170/2/2 175/2/2
f 173/2/2 174/2/2 176/2/2
f 176/2/2 174/2/2 177/2/2
f 177/2/2 174/2/2 178/2/2
f 178/2/2 174/2/2 179/2/2
f 177/2/2 178/2/2 180/2/2
f 180/2/2 178/2/2 181/2/2
f 182/6/2 183/6/2 186/6/2
f 186/6/2 183/6/2 187/6/2
f 184/3/2 185/3/2 188/3/2
f 188/3/2 185/3/2 189/3/2
f 190/5/2 191/5/2 193/5/2
f 193/5/2 191/5/2 194/5/2
f 192/5/2 193/5/2 196/5/2
f 196/5/2 193/5/2 197/5/2
f 195/5/2 196/5/2 201/5/2
f 201/5/2 196/5/2 202/5/2
f 198/5/2 199/5/2 203/5/2
f 203/5/2 199/5/2 204/5/2
f 200/5/2 201/5/2 207/5/2
f 207/5/2 201/5/2 208/5/2
f 204/5/2 205/5/2 209/5/2
f 209/5/2 205/5/2 210/5/2
f 206/5/2 207/5/2 213/5/2
f 213/5/2 207/5/2 214/5/2
f 210/5/2 211/5/2 215/5/2
f 215/5/2 211/5/2 216/5/2
f 212/5/2 213/5/2 217/5/2
f 217/5/2 213/5/2 218/5/2
f 216/5/2 217/5/2 219/5/2
f 219/5/2 217/5/2 220/5/2
f 221/1/2 222/1/2 223/1/2
f 223/1/2 222/1/2 224/1/2
f 227/1/3 226/1/3 225/1/3
f 228/1/3 226/1/3 227/1/3
f 233/3/3 230/3/3 229/3/3
f 234/3/3 230/3/3 233/3/3
f 235/5/3 232/5/3 231/5/3
f 236/5/3 232/5/3 235/5/3
f 239/6/3 238/6/3 237/6/3
f 240/6/3 238/6/3 239/6/3
f 243/6/3 242/6/3 241/6/3
f 244/6/3 242/6/3 243/6/3
f 247/6/3 246/6/3 245/6/3
f 248/6/3 246/6/3 247/6/3
f 253/2/3 252/2/3 251/2/3
f 254/2/3 252/2/3 253/2/3
f 256/2/3 252/2/3 254/2/3
f 257/2/3 256/2/3 255/2/3
f 258/2/3 252/2/3 256/2/3
f 258/2/3 256/2/3 257/2/3
f 259/5/3 250/5/3 249/5/3
f 260/5/3 250/5/3 259/5/3
f 263/6/3 262/6/3 261/6/3
f 264/6/3 262/6/3 263/6/3
f 267/6/3 266/6/3 265/6/3
f 268/6/3 266/6/3 267/6/3
f 273/4/3 272/4/3 271/4/3
f 274/4/3 272/4/3 273/4/3
f 275/5/3 270/5/3 269/5/3
f 276/5/3 270/5/3 275/5/3
f 281/5/3 278/5/3 277/5/3
f 282/3/3 280/3/3 279/3/3
f 283/3/3 280/3/3 282/3/3
f 284/5/3 278/5/3 281/5/3
f 285/5/3 278/5/3 284/5/3
f 290/2/3 289/2/3 288/2/3
f 291/2/3 289/2/3 290/2/3
f 292/2/3 290/2/3 288/2/3
f 293/2/3 289/2/3 291/2/3
f 294/2/3 292/2/3 288/2/3
f 294/2/3 293/2/3 292/2/3
f 295/2/3 289/2/3 293/2/3
f 295/2/3 293/2/3 294/2/3
f 296/5/3 287/5/3 286/5/3
f 297/5/3 287/5/3 296/5/3
f 302/4/3 301/4/3 300/4/3
f 303/4/3 301/4/3 302/4/3
f 304/5/3 299/5/3 298/5/3
f 305/5/3 299/5/3 304/5/3
f 308/5/3 307/5/3 306/5/3
f 309/5/3 307/5/3 308/5/3
f 314/5/3 311/5/3 310/5/3
f 315/5/3 311/5/3 314/5/3
f 316/2/3 313/2/3 312/2/3
f 317/2/3 313/2/3 316/2/3
f 320/5/3 319/5/3 318/5/3
f 321/5/3 319/5/3 320/5/3
f 326/5/3 323/5/3 322/5/3
f 327/5/3 323/5/3 326/5/3
f 328/2/3 325/2/3 324/2/3
f 329/2/3 325/2/3 328/2/3
f 332/5/3 331/5/3 330/5/3
f 333/5/3 331/5/3 332/5/3
f 336/5/3 335/5/3 334/5/3
f 337/5/3 335/5/3 336/5/3
f 340/5/3 339/5/3 338/5/3
f 341/5/3 339/5/3 340/5/3
f 344/5/3 343/5/3 342/5/3
f 345/5/3 343/5/3 344/5/3
f 348/5/3 347/5/3 346/5/3
f 349/5/3 347/5/3 348/5/3
f 352/5/3 351/5/3 350/5/3
f 353/5/3 351/5/3 352/5/3
f 356/5/3 355/5/3 354/5/3
f 357/5/3 355/5/3 356/5/3
f 360/5/3 359/5/3 358/5/3
f 361/5/3 359/5/3 360/5/3
f 364/5/3 363/5/3 362/5/3
f 365/5/3 363/5/3 364/5/3
f 366/5/4 367/5/4 368/5/4
f 368/5/4 367/5/4 369/5/4
f 370/5/4 371/5/4 372/5/4
f 372/5/4 371/5/4 373/5/4
f 374/6/4 375/6/4 376/6/4
f 376/6/4 375/6/4 377/6/4
f 378/6/4 379/6/4 380/6/4
f 380/6/4 379/6/4 381/6/4
f 382/5/4 383/5/4 384/5/4
f 384/5/4 383/5/4 385/5/4
f 386/5/4 387/5/4 388/5/4
f 388/5/4 387/5/4 389/5/4
f 390/6/4 391/6/4 392/6/4
f 392/6/4 391/6/4 393/6/4
f 394/6/4 395/6/4 396/6/4
f 396/6/4 395/6/4 397/6/4
f 398/5/4 399/5/4 400/5/4
f 400/5/4 399/5/4 401/5/4
f 402/5/4 403/5/4 404/5/4
f 404/5/4 403/5/4 405/5/4
f 406/5/4 407/5/4 408/5/4
f 408/5/4 407/5/4 409/5/4
f 410/5/4 411/5/4 412/5/4
f 412/5/4 411/5/4 413/5/4
f 414/5/4 415/5/4 418/5/4
f 418/5/4 415/5/4 419/5/4
f 416/2/4 417/2/4 420/2/4
f 420/2/4 417/2/4 421/2/4
f 422/5/4 423/5/4 424/5/4
f 424/5/4 423/5/4 425/5/4
f 426/5/4 427/5/4 430/5/4
f 430/5/4 427/5/4 431/5/4
f 428/2/4 429/2/4 432/2/4
f 432/2/4 429/2/4 433/2/4
f 434/5/4 435/5/4 436/5/4
f 436/5/4 435/5/4 437/5/4
f 438/5/4 439/5/4 440/5/4
f 440/5/4 439/5/4 441/5/4
f 442/5/4 443/5/4 444/5/4
f 444/5/4 443/5/4 445/5/4
f 446/5/4 447/5/4 448/5/4
f 448/5/4 447/5/4 449/5/4
f 450/5/4 451/5/4 452/5/4
f 452/5/4 451/5/4 453/5/4
f 454/5/4 455/5/4 456/5/4
f 456/5/4 455/5/4 457/5/4
f 460/2/4 461/2/4 462/2/4
f 462/2/4 461/2/4 463/2/4
f 458/5/4 459/5/4 464/5/4
f 464/5/4 459/5/4 465/5/4
f 466/3/4 467/3/4 470/3/4
f 470/3/4 467/3/4 471/3/4
f 468/5/4 469/5/4 472/5/4
f 472/5/4 469/5/4 473/5/4
f 474/1/4 475/1/4 476/1/4
f 476/1/4 475/1/4 477/1/4
f 480/1/5 479/1/5 478/1/5
f 481/1/5 479/1/5 480/1/5
f 484/2/5 483/2/5 482/2/5
f 485/2/5 483/2/5 484/2/5
f 488/5/5 487/5/5 486/5/5
f 489/5/5 487/5/5 488/5/5
f 490/5/5 487/5/5 489/5/5
f 491/5/5 487/5/5 490/5/5
f 496/5/5 493/5/5 492/5/5
f 496/5/5 495/5/5 494/5/5
f 496/5/5 494/5/5 493/5/5
f 497/5/5 495/5/5 496/5/5
f 502/5/5 499/5/5 498/5/5
f 503/5/5 499/5/5 502/5/5
f 504/5/5 501/5/5 500/5/5
f 505/5/5 501/5/5 504/5/5
f 508/2/5 507/2/5 506/2/5
f 509/2/5 507/2/5 508/2/5
f 514/5/5 511/5/5 510/5/5
f 515/5/5 511/5/5 514/5/5
f 516/5/5 513/5/5 512/5/5
f 517/5/5 513/5/5 516/5/5
f 522/5/5 519/5/5 518/5/5
f 523/5/5 519/5/5 522/5/5
f 524/5/5 521/5/5 520/5/5
f 525/5/5 521/5/5 524/5/5
f 528/2/5 527/2/5 526/2/5
f 529/2/5 527/2/5 528/2/5
f 532/2/5 531/2/5 530/2/5
f 533/2/5 531/2/5 532/2/5
f 538/5/5 535/5/5 534/5/5
f 539/5/5 535/5/5 538/5/5
f 540/5/5 537/5/5 536/5/5
f 541/5/5 537/5/5 540/5/5
f 547/5/5 543/5/5 542/5/5
f 548/5/5 543/5/5 547/5/5
f 549/5/5 546/5/5 545/5/5
f 549/5/5 545/5/5 544/5/5
f 550/5/5 546/5/5 549/5/5
f 551/5/5 546/5/5 550/5/5
f 554/2/5 553/2/5 552/2/5
f 555/2/5 553/2/5 554/2/5
f 560/5/5 557/5/5 556/5/5
f 561/5/5 557/5/5 560/5/5
f 562/5/5 559/5/5 558/5/5
f 563/5/5 559/5/5 562/5/5
f 568/5/5 565/5/5 564/5/5
f 569/5/5 565/5/5 568/5/5
f 570/5/5 567/5/5 566/5/5
f 571/5/5 567/5/5 570/5/5
f 576/5/5 573/5/5 572/5/5
f 577/5/5 573/5/5 576/5/5
f 578/5/5 575/5/5 574/5/5
f 579/5/5 575/5/5 578/5/5
f 584/5/5 581/5/5 580/5/5
f 585/5/5 581/5/5 584/5/5
f 586/5/5 583/5/5 582/5/5
f 587/5/5 583/5/5 586/5/5
f 592/5/5 589/5/5 588/5/5
f 593/5/5 589/5/5 592/5/5
f 594/5/5 591/5/5 590/5/5
f 595/5/5 591/5/5 594/5/5
f 600/5/5 597/5/5 596/5/5
f 601/5/5 597/5/5 600/5/5
f 602/5/5 599/5/5 598/5/5
f 603/5/5 599/5/5 602/5/5
f 604/1/6 605/1/6 606/1/6
f 606/1/6 605/1/6 607/1/6
f 607/1/6 605/1/6 608/1/6
f 608/1/6 605/1/6 609/1/6
f 609/1/6 605/1/6 610/1/6
f 610/1/6 605/1/6 611/1/6
f 611/1/6 605/1/6 612/1/6
f 612/1/6 605/1/6 613/1/6
f 607/1/6 608/1/6 614/1/6
f 609/1/6 610/1/6 615/1/6
f 615/1/6 610/1/6 616/1/6
f 611/1/6 612/1/6 617/1/6
f 617/1/6 612/1/6 618/1/6
f 614/1/6 615/1/6 619/1/6
f 616/1/6 617/1/6 620/1/6
f 620/1/6 617/1/6 621/1/6
f 613/1/6 605/1/6 622/1/6
f 620/1/6 621/1/6 623/1/6
f 621/1/6 622/1/6 623/1/6
f 619/1/6 620/1/6 623/1/6
f 607/1/6 614/1/6 623/1/6
f 614/1/6 619/1/6 623/1/6
f 622/1/6 605/1/6 624/1/6
f 623/1/6 622/1/6 624/1/6
f 604/1/6 606/1/6 625/1/6
f 624/1/6 605/1/6 626/1/6
f 604/1/6 625/1/6 627/1/6
f 625/1/6 626/1/6 627/1/6
f 626/1/6 605/1/6 628/1/6
f 627/1/6 626/1/6 628/1/6
f 629/3/6 630/3/6 637/3/6
f 637/3/6 630/3/6 638/3/6
f 638/3/6 630/3/6 639/3/6
f 639/3/6 630/3/6 640/3/6
f 631/6/6 632/6/6 641/6/6
f 641/6/6 632/6/6 642/6/6
f 633/6/6 634/6/6 643/6/6
f 643/6/6 634/6/6 644/6/6
f 635/6/6 636/6/6 645/6/6
f 638/3/6 639/3/6 646/3/6
f 646/3/6 639/3/6 647/3/6
f 642/6/6 643/6/6 648/6/6
f 648/6/6 643/6/6 649/6/6
f 644/6/6 645/6/6 650/6/6
f 645/6/6 636/6/6 651/6/6
f 650/6/6 645/6/6 651/6/6
f 640/3/6 630/3/6 652/3/6
f 640/3/6 652/3/6 654/3/6
f 652/3/6 653/3/6 654/3/6
f 654/3/6 653/3/6 655/3/6
f 629/3/6 637/3/6 656/3/6
f 655/3/6 653/3/6 657/3/6
f 629/3/6 656/3/6 658/3/6
f 656/3/6 657/3/6 658/3/6
f 657/3/6 653/3/6 659/3/6
f 658/3/6 657/3/6 659/3/6
f 660/2/6 661/2/6 662/2/6
f 662/2/6 661/2/6 663/2/6
f 664/5/6 665/5/6 666/5/6
f 666/5/6 665/5/6 667/5/6
f 668/2/6 669/2/6 670/2/6
f 670/2/6 669/2/6 671/2/6
f 672/5/6 673/5/6 674/5/6
f 674/5/6 673/5/6 675/5/6
f 676/5/6 677/5/6 678/5/6
f 678/5/6 677/5/6 679/5/6
f 680/5/6 681/5/6 682/5/6
f 682/5/6 681/5/6 683/5/6
f 684/5/6 685/5/6 686/5/6
f 686/5/6 685/5/6 687/5/6
f 688/5/6 689/5/6 690/5/6
f 690/5/6 689/5/6 691/5/6
f 692/5/6 693/5/6 694/5/6
f 694/5/6 693/5/6 695/5/6
f 696/5/6 697/5/6 698/5/6
f 698/5/6 697/5/6 699/5/6
f 700/5/6 701/5/6 702/5/6
f 702/5/6 701/5/6 703/5/6
f 704/5/6 705/5/6 706/5/6
f 706/5/6 705/5/6 707/5/6
f 708/5/6 709/5/6 710/5/6
f 710/5/6 709/5/6 711/5/6
f 712/5/6 713/5/6 714/5/6
f 714/5/6 713/5/6 715/5/6
f 716/5/6 717/5/6 718/5/6
f 718/5/6 717/5/6 719/5/6
