# MagicaVoxel @ Ephtracy

# group
o 

# material
mtllib 2.mtl
usemtl palette

# normals
vn -1 0 0
vn 1 0 0
vn 0 0 1
vn 0 0 -1
vn 0 -1 0
vn 0 1 0

# texcoords
vt 0.00195313 0.5
vt 0.00585938 0.5
vt 0.00976563 0.5
vt 0.0136719 0.5

# verts
v -1.8 0 1.8
v -1.8 0 -1.8
v -1.8 0.1 1.8
v -1.8 0.1 -1.8
v -1.4 0.1 1.4
v -1.4 0.1 -1.4
v -1.4 3.5 1.4
v -1.4 3.5 -1.4
v -1.1 3.4 1.1
v -1.1 3.4 0.8
v -1.1 3.6 1.1
v -1.1 3.6 0.8
v -1 0.1 -1.4
v -1 0.1 -1.7
v -1 0.3 -1.4
v -1 0.3 -1.7
v -1 3.4 0.8
v -1 3.4 0.7
v -1 3.5 0.8
v -1 3.5 0.7
v -0.8 3.4 0.8
v -0.8 3.4 0.7
v -0.8 3.5 0.8
v -0.8 3.5 0.7
v -0.2 0.3 1.4
v -0.2 0.3 1.3
v -0.2 0.6 1.4
v -0.2 0.6 1.3
v -0.2 0.9 1.4
v -0.2 0.9 1.3
v -0.2 1.2 1.4
v -0.2 1.2 1.3
v -0.2 3.4 1.2
v -0.2 3.4 -0.2
v -0.2 3.5 1.2
v -0.2 3.5 -0.2
v 0.2 0.1 -1.4
v 0.2 0.1 -1.7
v 0.2 0.3 -1.4
v 0.2 0.3 -1.7
v 0.6 3.4 -0.7
v 0.6 3.4 -0.8
v 0.6 3.4 -0.9
v 0.6 3.4 -1
v 0.6 3.5 -0.7
v 0.6 3.5 -0.8
v 0.6 3.5 -0.9
v 0.6 3.5 -1
v 0.7 3.4 -0.6
v 0.7 3.4 -0.7
v 0.7 3.4 -0.8
v 0.7 3.4 -0.9
v 0.7 3.4 -1
v 0.7 3.4 -1.1
v 0.7 3.5 -0.7
v 0.7 3.5 -0.8
v 0.7 3.5 -0.9
v 0.7 3.5 -1
v 0.7 3.6 -0.6
v 0.7 3.6 -1.1
v 1.1 0.1 0
v 1.1 0.1 -0.1
v 1.1 1.1 0
v 1.1 1.1 -0.1
v 1.2 3.4 -0.2
v 1.2 3.4 -1.2
v 1.2 3.5 -0.2
v 1.2 3.5 -1.2
v -1.2 0.3 1.4
v -1.2 0.3 1.3
v -1.2 0.6 1.4
v -1.2 0.6 1.3
v -1.2 0.9 1.4
v -1.2 0.9 1.3
v -1.2 1.2 1.4
v -1.2 1.2 1.3
v -1.2 1.6 1.4
v -1.2 1.6 1.3
v -1.2 1.9 1.4
v -1.2 1.9 1.3
v -1.2 2.2 1.4
v -1.2 2.2 1.3
v -1.2 2.5 1.4
v -1.2 2.5 1.3
v -1.2 2.8 1.4
v -1.2 2.8 1.3
v -1.2 3.1 1.4
v -1.2 3.1 1.3
v -1.2 3.4 1.2
v -1.2 3.4 -1.2
v -1.2 3.5 1.2
v -1.2 3.5 -1.2
v -0.9 3.4 0.8
v -0.9 3.4 0.7
v -0.9 3.5 0.8
v -0.9 3.5 0.7
v -0.7 3.4 0.8
v -0.7 3.4 0.7
v -0.7 3.5 0.8
v -0.7 3.5 0.7
v -0.6 3.4 1.1
v -0.6 3.4 0.8
v -0.6 3.6 1.1
v -0.6 3.6 0.8
v -0.5 0.1 -1.4
v -0.5 0.1 -1.7
v -0.5 0.3 -1.4
v -0.5 0.3 -1.7
v -0.0999999 0.3 1.2
v -0.0999999 0.3 0.2
v -0.0999999 0.6 1.2
v -0.0999999 0.6 0.2
v -0.0999999 0.9 1.2
v -0.0999999 0.9 0.2
v -0.0999999 1.2 1.2
v -0.0999999 1.2 0.2
v -0.0999999 1.6 1.3
v -0.0999999 1.6 -0.1
v -0.0999999 1.9 1.3
v -0.0999999 1.9 -0.1
v -0.0999999 2.2 1.3
v -0.0999999 2.2 -0.1
v -0.0999999 2.5 1.3
v -0.0999999 2.5 -0.1
v -0.0999999 2.8 1.3
v -0.0999999 2.8 -0.1
v -0.0999999 3.1 1.3
v -0.0999999 3.1 -0.1
v 0 0.1 1.4
v 0 0.1 0
v 0 0.3 1.2
v 0 0.3 0.2
v 0 0.6 1.2
v 0 0.6 0.2
v 0 0.9 1.2
v 0 0.9 0.2
v 0 1.2 1.2
v 0 1.2 0.2
v 0 1.6 1.4
v 0 1.6 0
v 0 1.9 1.4
v 0 1.9 0
v 0 2.2 1.4
v 0 2.2 0
v 0 2.5 1.4
v 0 2.5 0
v 0 2.8 1.4
v 0 2.8 0
v 0 3.1 1.4
v 0 3.1 0
v 0 3.5 1.4
v 0 3.5 0
v 0.3 0.1 0
v 0.3 0.1 -0.1
v 0.3 1.1 0
v 0.3 1.1 -0.1
v 0.7 0.1 -1.4
v 0.7 0.1 -1.7
v 0.7 0.3 -1.4
v 0.7 0.3 -1.7
v 1 3.4 -0.6
v 1 3.4 -1.1
v 1 3.6 -0.6
v 1 3.6 -1.1
v 1.3 0.5 -0.2
v 1.3 0.5 -1.2
v 1.3 1.1 -0.2
v 1.3 1.1 -1.2
v 1.3 1.6 -0.1
v 1.3 1.6 -1.2
v 1.3 1.9 -0.1
v 1.3 1.9 -1.2
v 1.3 2.2 -0.1
v 1.3 2.2 -1.2
v 1.3 2.5 -0.1
v 1.3 2.5 -1.2
v 1.3 2.8 -0.1
v 1.3 2.8 -1.2
v 1.3 3.1 -0.1
v 1.3 3.1 -1.2
v 1.4 0.1 0
v 1.4 0.1 -1.4
v 1.4 0.5 -0.2
v 1.4 0.5 -1.2
v 1.4 1.1 -0.2
v 1.4 1.1 -1.2
v 1.4 1.6 0
v 1.4 1.6 -1.2
v 1.4 1.9 0
v 1.4 1.9 -1.2
v 1.4 2.2 0
v 1.4 2.2 -1.2
v 1.4 2.5 0
v 1.4 2.5 -1.2
v 1.4 2.8 0
v 1.4 2.8 -1.2
v 1.4 3.1 0
v 1.4 3.1 -1.2
v 1.4 3.5 0
v 1.4 3.5 -1.4
v 1.8 0 1.8
v 1.8 0 -1.8
v 1.8 0.1 1.8
v 1.8 0.1 -1.8
v -1.8 0 1.8
v -1.8 0.1 1.8
v 1.8 0 1.8
v 1.8 0.1 1.8
v -1.4 0.1 1.4
v -1.4 3.5 1.4
v -1.2 0.3 1.4
v -1.2 0.6 1.4
v -1.2 0.9 1.4
v -1.2 1.2 1.4
v -1.2 1.6 1.4
v -1.2 1.9 1.4
v -1.2 2.2 1.4
v -1.2 2.5 1.4
v -1.2 2.8 1.4
v -1.2 3.1 1.4
v -0.2 0.3 1.4
v -0.2 0.6 1.4
v -0.2 0.9 1.4
v -0.2 1.2 1.4
v 0 0.1 1.4
v 0 1.6 1.4
v 0 1.9 1.4
v 0 2.2 1.4
v 0 2.5 1.4
v 0 2.8 1.4
v 0 3.1 1.4
v 0 3.5 1.4
v -1.2 0.3 1.3
v -1.2 0.6 1.3
v -1.2 0.9 1.3
v -1.2 1.2 1.3
v -1.2 1.6 1.3
v -1.2 1.9 1.3
v -1.2 2.2 1.3
v -1.2 2.5 1.3
v -1.2 2.8 1.3
v -1.2 3.1 1.3
v -0.2 0.3 1.3
v -0.2 0.6 1.3
v -0.2 0.9 1.3
v -0.2 1.2 1.3
v -0.0999999 1.6 1.3
v -0.0999999 1.9 1.3
v -0.0999999 2.2 1.3
v -0.0999999 2.5 1.3
v -0.0999999 2.8 1.3
v -0.0999999 3.1 1.3
v -1.1 3.4 1.1
v -1.1 3.6 1.1
v -0.6 3.4 1.1
v -0.6 3.6 1.1
v -0.0999999 0.3 0.2
v -0.0999999 0.6 0.2
v -0.0999999 0.9 0.2
v -0.0999999 1.2 0.2
v 0 0.3 0.2
v 0 0.6 0.2
v 0 0.9 0.2
v 0 1.2 0.2
v 0 0.1 0
v 0 1.6 0
v 0 1.9 0
v 0 2.2 0
v 0 2.5 0
v 0 2.8 0
v 0 3.1 0
v 0 3.5 0
v 0.3 0.1 0
v 0.3 1.1 0
v 1.1 0.1 0
v 1.1 1.1 0
v 1.4 0.1 0
v 1.4 1.6 0
v 1.4 1.9 0
v 1.4 2.2 0
v 1.4 2.5 0
v 1.4 2.8 0
v 1.4 3.1 0
v 1.4 3.5 0
v -0.0999999 1.6 -0.1
v -0.0999999 1.9 -0.1
v -0.0999999 2.2 -0.1
v -0.0999999 2.5 -0.1
v -0.0999999 2.8 -0.1
v -0.0999999 3.1 -0.1
v 0.3 0.1 -0.1
v 0.3 1.1 -0.1
v 1.1 0.1 -0.1
v 1.1 1.1 -0.1
v 1.3 1.6 -0.1
v 1.3 1.9 -0.1
v 1.3 2.2 -0.1
v 1.3 2.5 -0.1
v 1.3 2.8 -0.1
v 1.3 3.1 -0.1
v 0.7 3.4 -0.6
v 0.7 3.6 -0.6
v 1 3.4 -0.6
v 1 3.6 -0.6
v 0.6 3.4 -0.7
v 0.6 3.5 -0.7
v 0.7 3.4 -0.7
v 0.7 3.5 -0.7
v 0.6 3.4 -0.9
v 0.6 3.5 -0.9
v 0.7 3.4 -0.9
v 0.7 3.5 -0.9
v -1.2 3.4 -1.2
v -1.2 3.5 -1.2
v 1.2 3.4 -1.2
v 1.2 3.5 -1.2
v 1.3 0.5 -1.2
v 1.3 1.1 -1.2
v 1.3 1.6 -1.2
v 1.3 1.9 -1.2
v 1.3 2.2 -1.2
v 1.3 2.5 -1.2
v 1.3 2.8 -1.2
v 1.3 3.1 -1.2
v 1.4 0.5 -1.2
v 1.4 1.1 -1.2
v 1.4 1.6 -1.2
v 1.4 1.9 -1.2
v 1.4 2.2 -1.2
v 1.4 2.5 -1.2
v 1.4 2.8 -1.2
v 1.4 3.1 -1.2
v -1.2 3.4 1.2
v -1.2 3.5 1.2
v -0.2 3.4 1.2
v -0.2 3.5 1.2
v -0.0999999 0.3 1.2
v -0.0999999 0.6 1.2
v -0.0999999 0.9 1.2
v -0.0999999 1.2 1.2
v 0 0.3 1.2
v 0 0.6 1.2
v 0 0.9 1.2
v 0 1.2 1.2
v -1.1 3.4 0.8
v -1.1 3.6 0.8
v -1 3.4 0.8
v -1 3.5 0.8
v -0.9 3.4 0.8
v -0.9 3.5 0.8
v -0.8 3.4 0.8
v -0.8 3.5 0.8
v -0.7 3.4 0.8
v -0.7 3.5 0.8
v -0.6 3.4 0.8
v -0.6 3.6 0.8
v -1 3.4 0.7
v -1 3.5 0.7
v -0.9 3.4 0.7
v -0.9 3.5 0.7
v -0.8 3.4 0.7
v -0.8 3.5 0.7
v -0.7 3.4 0.7
v -0.7 3.5 0.7
v -0.2 3.4 -0.2
v -0.2 3.5 -0.2
v 1.2 3.4 -0.2
v 1.2 3.5 -0.2
v 1.3 0.5 -0.2
v 1.3 1.1 -0.2
v 1.4 0.5 -0.2
v 1.4 1.1 -0.2
v 0.6 3.4 -0.8
v 0.6 3.5 -0.8
v 0.7 3.4 -0.8
v 0.7 3.5 -0.8
v 0.6 3.4 -1
v 0.6 3.5 -1
v 0.7 3.4 -1
v 0.7 3.5 -1
v 0.7 3.4 -1.1
v 0.7 3.6 -1.1
v 1 3.4 -1.1
v 1 3.6 -1.1
v -1.4 0.1 -1.4
v -1.4 3.5 -1.4
v -1 0.1 -1.4
v -1 0.3 -1.4
v -0.5 0.1 -1.4
v -0.5 0.3 -1.4
v 0.2 0.1 -1.4
v 0.2 0.3 -1.4
v 0.7 0.1 -1.4
v 0.7 0.3 -1.4
v 1.4 0.1 -1.4
v 1.4 3.5 -1.4
v -1 0.1 -1.7
v -1 0.3 -1.7
v -0.5 0.1 -1.7
v -0.5 0.3 -1.7
v 0.2 0.1 -1.7
v 0.2 0.3 -1.7
v 0.7 0.1 -1.7
v 0.7 0.3 -1.7
v -1.8 0 -1.8
v -1.8 0.1 -1.8
v 1.8 0 -1.8
v 1.8 0.1 -1.8
v -1.8 0 1.8
v 1.8 0 1.8
v -1.8 0 -1.8
v 1.8 0 -1.8
v -1.2 0.6 1.4
v -0.2 0.6 1.4
v -1.2 0.6 1.3
v -0.2 0.6 1.3
v -0.0999999 0.6 1.2
v 0 0.6 1.2
v -0.0999999 0.6 0.2
v 0 0.6 0.2
v 0.3 1.1 0
v 1.1 1.1 0
v 0.3 1.1 -0.1
v 1.1 1.1 -0.1
v 1.3 1.1 -0.2
v 1.4 1.1 -0.2
v 1.3 1.1 -1.2
v 1.4 1.1 -1.2
v -1.2 1.2 1.4
v -0.2 1.2 1.4
v -1.2 1.2 1.3
v -0.2 1.2 1.3
v -0.0999999 1.2 1.2
v 0 1.2 1.2
v -0.0999999 1.2 0.2
v 0 1.2 0.2
v -1.2 1.9 1.4
v 0 1.9 1.4
v -1.2 1.9 1.3
v -0.0999999 1.9 1.3
v 0 1.9 0
v 1.4 1.9 0
v -0.0999999 1.9 -0.1
v 1.3 1.9 -0.1
v 1.3 1.9 -1.2
v 1.4 1.9 -1.2
v -1.2 2.5 1.4
v 0 2.5 1.4
v -1.2 2.5 1.3
v -0.0999999 2.5 1.3
v 0 2.5 0
v 1.4 2.5 0
v -0.0999999 2.5 -0.1
v 1.3 2.5 -0.1
v 1.3 2.5 -1.2
v 1.4 2.5 -1.2
v -1.2 3.1 1.4
v 0 3.1 1.4
v -1.2 3.1 1.3
v -0.0999999 3.1 1.3
v 0 3.1 0
v 1.4 3.1 0
v -0.0999999 3.1 -0.1
v 1.3 3.1 -0.1
v 1.3 3.1 -1.2
v 1.4 3.1 -1.2
v -1.8 0.1 1.8
v 1.8 0.1 1.8
v -1.4 0.1 1.4
v 0 0.1 1.4
v 0 0.1 0
v 0.3 0.1 0
v 1.1 0.1 0
v 1.4 0.1 0
v 0.3 0.1 -0.1
v 1.1 0.1 -0.1
v -1.4 0.1 -1.4
v -1 0.1 -1.4
v -0.5 0.1 -1.4
v 0.2 0.1 -1.4
v 0.7 0.1 -1.4
v 1.4 0.1 -1.4
v -1 0.1 -1.7
v -0.5 0.1 -1.7
v 0.2 0.1 -1.7
v 0.7 0.1 -1.7
v -1.8 0.1 -1.8
v 1.8 0.1 -1.8
v -1.2 0.3 1.4
v -0.2 0.3 1.4
v -1.2 0.3 1.3
v -0.2 0.3 1.3
v -0.0999999 0.3 1.2
v 0 0.3 1.2
v -0.0999999 0.3 0.2
v 0 0.3 0.2
v -1 0.3 -1.4
v -0.5 0.3 -1.4
v 0.2 0.3 -1.4
v 0.7 0.3 -1.4
v -1 0.3 -1.7
v -0.5 0.3 -1.7
v 0.2 0.3 -1.7
v 0.7 0.3 -1.7
v 1.3 0.5 -0.2
v 1.4 0.5 -0.2
v 1.3 0.5 -1.2
v 1.4 0.5 -1.2
v -1.2 0.9 1.4
v -0.2 0.9 1.4
v -1.2 0.9 1.3
v -0.2 0.9 1.3
v -0.0999999 0.9 1.2
v 0 0.9 1.2
v -0.0999999 0.9 0.2
v 0 0.9 0.2
v -1.2 1.6 1.4
v 0 1.6 1.4
v -1.2 1.6 1.3
v -0.0999999 1.6 1.3
v 0 1.6 0
v 1.4 1.6 0
v -0.0999999 1.6 -0.1
v 1.3 1.6 -0.1
v 1.3 1.6 -1.2
v 1.4 1.6 -1.2
v -1.2 2.2 1.4
v 0 2.2 1.4
v -1.2 2.2 1.3
v -0.0999999 2.2 1.3
v 0 2.2 0
v 1.4 2.2 0
v -0.0999999 2.2 -0.1
v 1.3 2.2 -0.1
v 1.3 2.2 -1.2
v 1.4 2.2 -1.2
v -1.2 2.8 1.4
v 0 2.8 1.4
v -1.2 2.8 1.3
v -0.0999999 2.8 1.3
v 0 2.8 0
v 1.4 2.8 0
v -0.0999999 2.8 -0.1
v 1.3 2.8 -0.1
v 1.3 2.8 -1.2
v 1.4 2.8 -1.2
v -1.2 3.4 1.2
v -0.2 3.4 1.2
v -1.1 3.4 1.1
v -0.6 3.4 1.1
v -1.1 3.4 0.8
v -1 3.4 0.8
v -0.9 3.4 0.8
v -0.8 3.4 0.8
v -0.7 3.4 0.8
v -0.6 3.4 0.8
v -1 3.4 0.7
v -0.9 3.4 0.7
v -0.8 3.4 0.7
v -0.7 3.4 0.7
v -0.2 3.4 -0.2
v 1.2 3.4 -0.2
v 0.7 3.4 -0.6
v 1 3.4 -0.6
v 0.6 3.4 -0.7
v 0.7 3.4 -0.7
v 0.6 3.4 -0.8
v 0.7 3.4 -0.8
v 0.6 3.4 -0.9
v 0.7 3.4 -0.9
v 0.6 3.4 -1
v 0.7 3.4 -1
v 0.7 3.4 -1.1
v 1 3.4 -1.1
v -1.2 3.4 -1.2
v 1.2 3.4 -1.2
v -1.4 3.5 1.4
v 0 3.5 1.4
v -1.2 3.5 1.2
v -0.2 3.5 1.2
v -1 3.5 0.8
v -0.9 3.5 0.8
v -0.8 3.5 0.8
v -0.7 3.5 0.8
v -1 3.5 0.7
v -0.9 3.5 0.7
v -0.8 3.5 0.7
v -0.7 3.5 0.7
v 0 3.5 0
v 1.4 3.5 0
v -0.2 3.5 -0.2
v 1.2 3.5 -0.2
v 0.6 3.5 -0.7
v 0.7 3.5 -0.7
v 0.6 3.5 -0.8
v 0.7 3.5 -0.8
v 0.6 3.5 -0.9
v 0.7 3.5 -0.9
v 0.6 3.5 -1
v 0.7 3.5 -1
v -1.2 3.5 -1.2
v 1.2 3.5 -1.2
v -1.4 3.5 -1.4
v 1.4 3.5 -1.4
v -1.1 3.6 1.1
v -0.6 3.6 1.1
v -1.1 3.6 0.8
v -0.6 3.6 0.8
v 0.7 3.6 -0.6
v 1 3.6 -0.6
v 0.7 3.6 -1.1
v 1 3.6 -1.1

# faces
f 3/1/1 2/1/1 1/1/1
f 4/1/1 2/1/1 3/1/1
f 7/2/1 6/2/1 5/2/1
f 8/2/1 6/2/1 7/2/1
f 11/3/1 10/3/1 9/3/1
f 12/3/1 10/3/1 11/3/1
f 15/2/1 14/2/1 13/2/1
f 16/2/1 14/2/1 15/2/1
f 19/3/1 18/3/1 17/3/1
f 20/3/1 18/3/1 19/3/1
f 23/3/1 22/3/1 21/3/1
f 24/3/1 22/3/1 23/3/1
f 27/2/1 26/2/1 25/2/1
f 28/2/1 26/2/1 27/2/1
f 31/2/1 30/2/1 29/2/1
f 32/2/1 30/2/1 31/2/1
f 35/2/1 34/2/1 33/2/1
f 36/2/1 34/2/1 35/2/1
f 39/2/1 38/2/1 37/2/1
f 40/2/1 38/2/1 39/2/1
f 45/3/1 42/3/1 41/3/1
f 46/3/1 42/3/1 45/3/1
f 47/3/1 44/3/1 43/3/1
f 48/3/1 44/3/1 47/3/1
f 55/3/1 50/3/1 49/3/1
f 56/3/1 52/3/1 51/3/1
f 57/3/1 52/3/1 56/3/1
f 58/3/1 54/3/1 53/3/1
f 59/3/1 57/3/1 56/3/1
f 59/3/1 58/3/1 57/3/1
f 59/3/1 55/3/1 49/3/1
f 59/3/1 56/3/1 55/3/1
f 60/3/1 54/3/1 58/3/1
f 60/3/1 58/3/1 59/3/1
f 63/2/1 62/2/1 61/2/1
f 64/2/1 62/2/1 63/2/1
f 67/2/1 66/2/1 65/2/1
f 68/2/1 66/2/1 67/2/1
f 69/2/2 70/2/2 71/2/2
f 71/2/2 70/2/2 72/2/2
f 73/2/2 74/2/2 75/2/2
f 75/2/2 74/2/2 76/2/2
f 77/2/2 78/2/2 79/2/2
f 79/2/2 78/2/2 80/2/2
f 81/2/2 82/2/2 83/2/2
f 83/2/2 82/2/2 84/2/2
f 85/2/2 86/2/2 87/2/2
f 87/2/2 86/2/2 88/2/2
f 89/2/2 90/2/2 91/2/2
f 91/2/2 90/2/2 92/2/2
f 93/3/2 94/3/2 95/3/2
f 95/3/2 94/3/2 96/3/2
f 97/3/2 98/3/2 99/3/2
f 99/3/2 98/3/2 100/3/2
f 101/3/2 102/3/2 103/3/2
f 103/3/2 102/3/2 104/3/2
f 105/2/2 106/2/2 107/2/2
f 107/2/2 106/2/2 108/2/2
f 109/4/2 110/4/2 111/4/2
f 111/4/2 110/4/2 112/4/2
f 113/4/2 114/4/2 115/4/2
f 115/4/2 114/4/2 116/4/2
f 117/4/2 118/4/2 119/4/2
f 119/4/2 118/4/2 120/4/2
f 121/4/2 122/4/2 123/4/2
f 123/4/2 122/4/2 124/4/2
f 125/4/2 126/4/2 127/4/2
f 127/4/2 126/4/2 128/4/2
f 129/2/2 130/2/2 131/2/2
f 131/2/2 130/2/2 132/2/2
f 129/2/2 131/2/2 133/2/2
f 132/2/2 130/2/2 134/2/2
f 129/2/2 133/2/2 135/2/2
f 133/2/2 134/2/2 135/2/2
f 134/2/2 130/2/2 136/2/2
f 135/2/2 134/2/2 136/2/2
f 129/2/2 135/2/2 137/2/2
f 136/2/2 130/2/2 138/2/2
f 129/2/2 137/2/2 139/2/2
f 137/2/2 138/2/2 139/2/2
f 138/2/2 130/2/2 140/2/2
f 139/2/2 138/2/2 140/2/2
f 141/2/2 142/2/2 143/2/2
f 143/2/2 142/2/2 144/2/2
f 145/2/2 146/2/2 147/2/2
f 147/2/2 146/2/2 148/2/2
f 149/2/2 150/2/2 151/2/2
f 151/2/2 150/2/2 152/2/2
f 153/2/2 154/2/2 155/2/2
f 155/2/2 154/2/2 156/2/2
f 157/2/2 158/2/2 159/2/2
f 159/2/2 158/2/2 160/2/2
f 161/3/2 162/3/2 163/3/2
f 163/3/2 162/3/2 164/3/2
f 165/4/2 166/4/2 167/4/2
f 167/4/2 166/4/2 168/4/2
f 169/4/2 170/4/2 171/4/2
f 171/4/2 170/4/2 172/4/2
f 173/4/2 174/4/2 175/4/2
f 175/4/2 174/4/2 176/4/2
f 177/4/2 178/4/2 179/4/2
f 179/4/2 178/4/2 180/4/2
f 181/2/2 182/2/2 183/2/2
f 183/2/2 182/2/2 184/2/2
f 181/2/2 183/2/2 185/2/2
f 184/2/2 182/2/2 186/2/2
f 181/2/2 185/2/2 187/2/2
f 185/2/2 186/2/2 187/2/2
f 186/2/2 182/2/2 188/2/2
f 187/2/2 186/2/2 188/2/2
f 188/2/2 182/2/2 190/2/2
f 189/2/2 190/2/2 191/2/2
f 190/2/2 182/2/2 192/2/2
f 191/2/2 190/2/2 192/2/2
f 192/2/2 182/2/2 194/2/2
f 193/2/2 194/2/2 195/2/2
f 194/2/2 182/2/2 196/2/2
f 195/2/2 194/2/2 196/2/2
f 196/2/2 182/2/2 198/2/2
f 197/2/2 198/2/2 199/2/2
f 198/2/2 182/2/2 200/2/2
f 199/2/2 198/2/2 200/2/2
f 201/1/2 202/1/2 203/1/2
f 203/1/2 202/1/2 204/1/2
f 207/1/3 206/1/3 205/1/3
f 208/1/3 206/1/3 207/1/3
f 211/2/3 210/2/3 209/2/3
f 212/2/3 210/2/3 211/2/3
f 213/2/3 210/2/3 212/2/3
f 214/2/3 210/2/3 213/2/3
f 215/2/3 210/2/3 214/2/3
f 216/2/3 210/2/3 215/2/3
f 217/2/3 210/2/3 216/2/3
f 218/2/3 210/2/3 217/2/3
f 219/2/3 210/2/3 218/2/3
f 220/2/3 210/2/3 219/2/3
f 221/2/3 211/2/3 209/2/3
f 222/2/3 213/2/3 212/2/3
f 223/2/3 213/2/3 222/2/3
f 224/2/3 215/2/3 214/2/3
f 225/2/3 221/2/3 209/2/3
f 225/2/3 224/2/3 223/2/3
f 225/2/3 223/2/3 222/2/3
f 225/2/3 222/2/3 221/2/3
f 226/2/3 215/2/3 224/2/3
f 226/2/3 224/2/3 225/2/3
f 227/2/3 217/2/3 216/2/3
f 228/2/3 217/2/3 227/2/3
f 229/2/3 219/2/3 218/2/3
f 230/2/3 219/2/3 229/2/3
f 231/2/3 210/2/3 220/2/3
f 232/2/3 210/2/3 231/2/3
f 243/4/3 234/4/3 233/4/3
f 244/4/3 234/4/3 243/4/3
f 245/4/3 236/4/3 235/4/3
f 246/4/3 236/4/3 245/4/3
f 247/4/3 238/4/3 237/4/3
f 248/4/3 238/4/3 247/4/3
f 249/4/3 240/4/3 239/4/3
f 250/4/3 240/4/3 249/4/3
f 251/4/3 242/4/3 241/4/3
f 252/4/3 242/4/3 251/4/3
f 255/3/3 254/3/3 253/3/3
f 256/3/3 254/3/3 255/3/3
f 261/2/3 258/2/3 257/2/3
f 262/2/3 258/2/3 261/2/3
f 263/2/3 260/2/3 259/2/3
f 264/2/3 260/2/3 263/2/3
f 273/2/3 266/2/3 265/2/3
f 274/2/3 266/2/3 273/2/3
f 276/2/3 266/2/3 274/2/3
f 277/2/3 276/2/3 275/2/3
f 278/2/3 266/2/3 276/2/3
f 278/2/3 276/2/3 277/2/3
f 279/2/3 268/2/3 267/2/3
f 280/2/3 268/2/3 279/2/3
f 281/2/3 270/2/3 269/2/3
f 282/2/3 270/2/3 281/2/3
f 283/2/3 272/2/3 271/2/3
f 284/2/3 272/2/3 283/2/3
f 293/4/3 292/4/3 291/4/3
f 294/4/3 292/4/3 293/4/3
f 295/4/3 286/4/3 285/4/3
f 296/4/3 286/4/3 295/4/3
f 297/4/3 288/4/3 287/4/3
f 298/4/3 288/4/3 297/4/3
f 299/4/3 290/4/3 289/4/3
f 300/4/3 290/4/3 299/4/3
f 303/3/3 302/3/3 301/3/3
f 304/3/3 302/3/3 303/3/3
f 307/3/3 306/3/3 305/3/3
f 308/3/3 306/3/3 307/3/3
f 311/3/3 310/3/3 309/3/3
f 312/3/3 310/3/3 311/3/3
f 315/2/3 314/2/3 313/2/3
f 316/2/3 314/2/3 315/2/3
f 325/2/3 318/2/3 317/2/3
f 326/2/3 318/2/3 325/2/3
f 327/2/3 320/2/3 319/2/3
f 328/2/3 320/2/3 327/2/3
f 329/2/3 322/2/3 321/2/3
f 330/2/3 322/2/3 329/2/3
f 331/2/3 324/2/3 323/2/3
f 332/2/3 324/2/3 331/2/3
f 333/2/4 334/2/4 335/2/4
f 335/2/4 334/2/4 336/2/4
f 337/2/4 338/2/4 341/2/4
f 341/2/4 338/2/4 342/2/4
f 339/2/4 340/2/4 343/2/4
f 343/2/4 340/2/4 344/2/4
f 345/3/4 346/3/4 347/3/4
f 347/3/4 346/3/4 348/3/4
f 348/3/4 346/3/4 350/3/4
f 349/3/4 350/3/4 351/3/4
f 350/3/4 346/3/4 352/3/4
f 351/3/4 350/3/4 352/3/4
f 352/3/4 346/3/4 354/3/4
f 353/3/4 354/3/4 355/3/4
f 354/3/4 346/3/4 356/3/4
f 355/3/4 354/3/4 356/3/4
f 357/3/4 358/3/4 359/3/4
f 359/3/4 358/3/4 360/3/4
f 361/3/4 362/3/4 363/3/4
f 363/3/4 362/3/4 364/3/4
f 365/2/4 366/2/4 367/2/4
f 367/2/4 366/2/4 368/2/4
f 369/2/4 370/2/4 371/2/4
f 371/2/4 370/2/4 372/2/4
f 373/3/4 374/3/4 375/3/4
f 375/3/4 374/3/4 376/3/4
f 377/3/4 378/3/4 379/3/4
f 379/3/4 378/3/4 380/3/4
f 381/3/4 382/3/4 383/3/4
f 383/3/4 382/3/4 384/3/4
f 385/2/4 386/2/4 387/2/4
f 387/2/4 386/2/4 388/2/4
f 388/2/4 386/2/4 390/2/4
f 389/2/4 390/2/4 391/2/4
f 390/2/4 386/2/4 392/2/4
f 391/2/4 390/2/4 392/2/4
f 392/2/4 386/2/4 394/2/4
f 393/2/4 394/2/4 395/2/4
f 394/2/4 386/2/4 396/2/4
f 395/2/4 394/2/4 396/2/4
f 397/2/4 398/2/4 399/2/4
f 399/2/4 398/2/4 400/2/4
f 401/2/4 402/2/4 403/2/4
f 403/2/4 402/2/4 404/2/4
f 405/1/4 406/1/4 407/1/4
f 407/1/4 406/1/4 408/1/4
f 411/1/5 410/1/5 409/1/5
f 412/1/5 410/1/5 411/1/5
f 415/2/5 414/2/5 413/2/5
f 416/2/5 414/2/5 415/2/5
f 419/2/5 418/2/5 417/2/5
f 420/2/5 418/2/5 419/2/5
f 423/2/5 422/2/5 421/2/5
f 424/2/5 422/2/5 423/2/5
f 427/2/5 426/2/5 425/2/5
f 428/2/5 426/2/5 427/2/5
f 431/2/5 430/2/5 429/2/5
f 432/2/5 430/2/5 431/2/5
f 435/2/5 434/2/5 433/2/5
f 436/2/5 434/2/5 435/2/5
f 439/2/5 438/2/5 437/2/5
f 440/2/5 438/2/5 439/2/5
f 441/2/5 438/2/5 440/2/5
f 443/2/5 441/2/5 440/2/5
f 443/2/5 442/2/5 441/2/5
f 444/2/5 442/2/5 443/2/5
f 445/2/5 442/2/5 444/2/5
f 446/2/5 442/2/5 445/2/5
f 449/2/5 448/2/5 447/2/5
f 450/2/5 448/2/5 449/2/5
f 451/2/5 448/2/5 450/2/5
f 453/2/5 451/2/5 450/2/5
f 453/2/5 452/2/5 451/2/5
f 454/2/5 452/2/5 453/2/5
f 455/2/5 452/2/5 454/2/5
f 456/2/5 452/2/5 455/2/5
f 459/2/5 458/2/5 457/2/5
f 460/2/5 458/2/5 459/2/5
f 461/2/5 458/2/5 460/2/5
f 463/2/5 461/2/5 460/2/5
f 463/2/5 462/2/5 461/2/5
f 464/2/5 462/2/5 463/2/5
f 465/2/5 462/2/5 464/2/5
f 466/2/5 462/2/5 465/2/5
f 467/1/6 468/1/6 469/1/6
f 469/1/6 468/1/6 470/1/6
f 470/1/6 468/1/6 471/1/6
f 471/1/6 468/1/6 472/1/6
f 472/1/6 468/1/6 473/1/6
f 473/1/6 468/1/6 474/1/6
f 472/1/6 473/1/6 475/1/6
f 475/1/6 473/1/6 476/1/6
f 467/1/6 469/1/6 477/1/6
f 474/1/6 468/1/6 482/1/6
f 477/1/6 478/1/6 483/1/6
f 479/1/6 480/1/6 484/1/6
f 484/1/6 480/1/6 485/1/6
f 481/1/6 482/1/6 486/1/6
f 477/1/6 483/1/6 487/1/6
f 485/1/6 486/1/6 487/1/6
f 484/1/6 485/1/6 487/1/6
f 467/1/6 477/1/6 487/1/6
f 483/1/6 484/1/6 487/1/6
f 486/1/6 482/1/6 488/1/6
f 487/1/6 486/1/6 488/1/6
f 482/1/6 468/1/6 488/1/6
f 489/2/6 490/2/6 491/2/6
f 491/2/6 490/2/6 492/2/6
f 493/2/6 494/2/6 495/2/6
f 495/2/6 494/2/6 496/2/6
f 497/2/6 498/2/6 501/2/6
f 501/2/6 498/2/6 502/2/6
f 499/2/6 500/2/6 503/2/6
f 503/2/6 500/2/6 504/2/6
f 505/2/6 506/2/6 507/2/6
f 507/2/6 506/2/6 508/2/6
f 509/2/6 510/2/6 511/2/6
f 511/2/6 510/2/6 512/2/6
f 513/2/6 514/2/6 515/2/6
f 515/2/6 514/2/6 516/2/6
f 517/2/6 518/2/6 519/2/6
f 519/2/6 518/2/6 520/2/6
f 520/2/6 518/2/6 521/2/6
f 520/2/6 521/2/6 523/2/6
f 521/2/6 522/2/6 523/2/6
f 523/2/6 522/2/6 524/2/6
f 524/2/6 522/2/6 525/2/6
f 525/2/6 522/2/6 526/2/6
f 527/2/6 528/2/6 529/2/6
f 529/2/6 528/2/6 530/2/6
f 530/2/6 528/2/6 531/2/6
f 530/2/6 531/2/6 533/2/6
f 531/2/6 532/2/6 533/2/6
f 533/2/6 532/2/6 534/2/6
f 534/2/6 532/2/6 535/2/6
f 535/2/6 532/2/6 536/2/6
f 537/2/6 538/2/6 539/2/6
f 539/2/6 538/2/6 540/2/6
f 540/2/6 538/2/6 541/2/6
f 540/2/6 541/2/6 543/2/6
f 541/2/6 542/2/6 543/2/6
f 543/2/6 542/2/6 544/2/6
f 544/2/6 542/2/6 545/2/6
f 545/2/6 542/2/6 546/2/6
f 547/2/6 548/2/6 549/2/6
f 549/2/6 548/2/6 550/2/6
f 547/2/6 549/2/6 551/2/6
f 550/2/6 548/2/6 556/2/6
f 551/2/6 552/2/6 557/2/6
f 553/2/6 554/2/6 558/2/6
f 558/2/6 554/2/6 559/2/6
f 555/2/6 556/2/6 560/2/6
f 558/2/6 559/2/6 561/2/6
f 559/2/6 560/2/6 561/2/6
f 560/2/6 556/2/6 561/2/6
f 556/2/6 548/2/6 561/2/6
f 557/2/6 558/2/6 561/2/6
f 561/2/6 562/2/6 563/2/6
f 563/2/6 562/2/6 564/2/6
f 561/2/6 563/2/6 565/2/6
f 565/2/6 563/2/6 566/2/6
f 561/2/6 565/2/6 567/2/6
f 561/2/6 567/2/6 569/2/6
f 567/2/6 568/2/6 569/2/6
f 569/2/6 568/2/6 570/2/6
f 561/2/6 569/2/6 571/2/6
f 571/2/6 572/2/6 573/2/6
f 564/2/6 562/2/6 574/2/6
f 551/2/6 557/2/6 575/2/6
f 573/2/6 574/2/6 575/2/6
f 547/2/6 551/2/6 575/2/6
f 557/2/6 561/2/6 575/2/6
f 561/2/6 571/2/6 575/2/6
f 571/2/6 573/2/6 575/2/6
f 574/2/6 562/2/6 576/2/6
f 575/2/6 574/2/6 576/2/6
f 577/2/6 578/2/6 579/2/6
f 579/2/6 578/2/6 580/2/6
f 581/3/6 582/3/6 585/3/6
f 585/3/6 582/3/6 586/3/6
f 583/3/6 584/3/6 587/3/6
f 587/3/6 584/3/6 588/3/6
f 580/2/6 578/2/6 589/2/6
f 580/2/6 589/2/6 591/2/6
f 589/2/6 590/2/6 591/2/6
f 591/2/6 590/2/6 592/2/6
f 593/3/6 594/3/6 595/3/6
f 595/3/6 594/3/6 596/3/6
f 597/3/6 598/3/6 599/3/6
f 599/3/6 598/3/6 600/3/6
f 577/2/6 579/2/6 601/2/6
f 592/2/6 590/2/6 602/2/6
f 577/2/6 601/2/6 603/2/6
f 601/2/6 602/2/6 603/2/6
f 602/2/6 590/2/6 604/2/6
f 603/2/6 602/2/6 604/2/6
f 605/3/6 606/3/6 607/3/6
f 607/3/6 606/3/6 608/3/6
f 609/3/6 610/3/6 611/3/6
f 611/3/6 610/3/6 612/3/6
